G04 DipTrace 2.2.0.9*
%INTopSilk.gbr*%
%MOIN*%
%ADD10C,0.0098*%
%ADD14C,0.0*%
%ADD18C,0.0154*%
%ADD47C,0.0077*%
%FSLAX44Y44*%
%SFA1B1*%
%OFA0B0*%
G04*
G70*
G90*
G75*
G01*
%LNTopSilk*%
%LPD*%
X9690Y17363D2*
D10*
X10202D1*
X13205Y10134D2*
X12693D1*
X10202D2*
X9690D1*
X38853Y20196D2*
Y19684D1*
X9237Y18582D2*
Y19094D1*
X20454Y14399D2*
X20966D1*
X23384Y12279D2*
X22872D1*
X12386Y19611D2*
X11874D1*
X12215Y13946D2*
Y13434D1*
X29546Y19221D2*
X29034D1*
X13605Y19596D2*
Y20108D1*
X32440Y21190D2*
Y21690D1*
X32690Y20940D2*
X33190D1*
X32690D2*
X32440Y21190D1*
Y21690D2*
X32690Y21940D1*
X33190D1*
X33690Y20940D2*
X34190D1*
X33690D2*
X33440Y21190D1*
X33190Y20940D2*
X33440Y21190D1*
X33190Y21940D2*
X33440Y21690D1*
X33690Y21940D1*
X34190D1*
X34440Y21690D1*
Y21190D1*
X34190Y20940D2*
X34440Y21190D1*
X9190Y5440D2*
X8690D1*
X9440Y5690D2*
Y6190D1*
Y5690D2*
X9190Y5440D1*
X8690D2*
X8440Y5690D1*
Y6190D1*
X9440Y6690D2*
Y7190D1*
Y6690D2*
X9190Y6440D1*
X9440Y6190D2*
X9190Y6440D1*
X8440Y6190D2*
X8690Y6440D1*
X8440Y6690D1*
Y7190D1*
X8690Y7440D1*
X9190D1*
X9440Y7190D2*
X9190Y7440D1*
X37690D2*
X38190D1*
X37440Y7190D2*
Y6690D1*
Y7190D2*
X37690Y7440D1*
X38190D2*
X38440Y7190D1*
Y6690D1*
X37440Y6190D2*
Y5690D1*
Y6190D2*
X37690Y6440D1*
X37440Y6690D2*
X37690Y6440D1*
X38440Y6690D2*
X38190Y6440D1*
X38440Y6190D1*
Y5690D1*
X38190Y5440D1*
X37690D1*
X37440Y5690D2*
X37690Y5440D1*
X35190Y7440D2*
X35690D1*
X34940Y7190D2*
Y6690D1*
Y7190D2*
X35190Y7440D1*
X35690D2*
X35940Y7190D1*
Y6690D1*
X34940Y6190D2*
Y5690D1*
Y6190D2*
X35190Y6440D1*
X34940Y6690D2*
X35190Y6440D1*
X35940Y6690D2*
X35690Y6440D1*
X35940Y6190D1*
Y5690D1*
X35690Y5440D1*
X35190D1*
X34940Y5690D2*
X35190Y5440D1*
X32823Y7440D2*
X33323D1*
X32573Y7190D2*
Y6690D1*
Y7190D2*
X32823Y7440D1*
X33323D2*
X33573Y7190D1*
Y6690D1*
X32573Y6190D2*
Y5690D1*
Y6190D2*
X32823Y6440D1*
X32573Y6690D2*
X32823Y6440D1*
X33573Y6690D2*
X33323Y6440D1*
X33573Y6190D1*
Y5690D1*
X33323Y5440D1*
X32823D1*
X32573Y5690D2*
X32823Y5440D1*
X30323Y7440D2*
X30823D1*
X30073Y7190D2*
Y6690D1*
Y7190D2*
X30323Y7440D1*
X30823D2*
X31073Y7190D1*
Y6690D1*
X30073Y6190D2*
Y5690D1*
Y6190D2*
X30323Y6440D1*
X30073Y6690D2*
X30323Y6440D1*
X31073Y6690D2*
X30823Y6440D1*
X31073Y6190D1*
Y5690D1*
X30823Y5440D1*
X30323D1*
X30073Y5690D2*
X30323Y5440D1*
X41440Y18190D2*
Y17690D1*
X41190Y18440D2*
X40690D1*
X41190D2*
X41440Y18190D1*
Y17690D2*
X41190Y17440D1*
X40690D1*
X40190Y18440D2*
X39690D1*
X40190D2*
X40440Y18190D1*
X40690Y18440D2*
X40440Y18190D1*
X40690Y17440D2*
X40440Y17690D1*
X40190Y17440D1*
X39690D1*
X39440Y17690D1*
Y18190D1*
X39690Y18440D2*
X39440Y18190D1*
X41440Y15690D2*
Y15190D1*
X41190Y15940D2*
X40690D1*
X41190D2*
X41440Y15690D1*
Y15190D2*
X41190Y14940D1*
X40690D1*
X40190Y15940D2*
X39690D1*
X40190D2*
X40440Y15690D1*
X40690Y15940D2*
X40440Y15690D1*
X40690Y14940D2*
X40440Y15190D1*
X40190Y14940D1*
X39690D1*
X39440Y15190D1*
Y15690D1*
X39690Y15940D2*
X39440Y15690D1*
D18*
X29793Y9248D3*
X30294Y9156D2*
D10*
Y7975D1*
X30491D1*
Y9156D1*
X30294D1*
D18*
X32293Y9248D3*
X32794Y9156D2*
D10*
Y7975D1*
X32991D1*
Y9156D1*
X32794D1*
D18*
X34793Y9248D3*
X35294Y9156D2*
D10*
Y7975D1*
X35491D1*
Y9156D1*
X35294D1*
D18*
X37293Y9248D3*
X37794Y9156D2*
D10*
Y7975D1*
X37991D1*
Y9156D1*
X37794D1*
D18*
X15293Y9248D3*
X15794Y9156D2*
D10*
Y7975D1*
X15991D1*
Y9156D1*
X15794D1*
D18*
X17793Y9248D3*
X18294Y9156D2*
D10*
Y7975D1*
X18491D1*
Y9156D1*
X18294D1*
D18*
X20293Y9248D3*
X20794Y9156D2*
D10*
Y7975D1*
X20991D1*
Y9156D1*
X20794D1*
D18*
X22793Y9248D3*
X23294Y9156D2*
D10*
Y7975D1*
X23491D1*
Y9156D1*
X23294D1*
X11690Y5440D2*
X11190D1*
X11940Y5690D2*
Y6190D1*
Y5690D2*
X11690Y5440D1*
X11190D2*
X10940Y5690D1*
Y6190D1*
X11940Y6690D2*
Y7190D1*
Y6690D2*
X11690Y6440D1*
X11940Y6190D2*
X11690Y6440D1*
X10940Y6190D2*
X11190Y6440D1*
X10940Y6690D1*
Y7190D1*
X11190Y7440D1*
X11690D1*
X11940Y7190D2*
X11690Y7440D1*
X6940Y9690D2*
Y9190D1*
X6690Y9940D2*
X6190D1*
X6690D2*
X6940Y9690D1*
Y9190D2*
X6690Y8940D1*
X6190D1*
X5690Y9940D2*
X5190D1*
X5690D2*
X5940Y9690D1*
X6190Y9940D2*
X5940Y9690D1*
X6190Y8940D2*
X5940Y9190D1*
X5690Y8940D1*
X5190D1*
X4940Y9190D1*
Y9690D1*
X5190Y9940D2*
X4940Y9690D1*
X6940Y12190D2*
Y11690D1*
X6690Y12440D2*
X6190D1*
X6690D2*
X6940Y12190D1*
Y11690D2*
X6690Y11440D1*
X6190D1*
X5690Y12440D2*
X5190D1*
X5690D2*
X5940Y12190D1*
X6190Y12440D2*
X5940Y12190D1*
X6190Y11440D2*
X5940Y11690D1*
X5690Y11440D1*
X5190D1*
X4940Y11690D1*
Y12190D1*
X5190Y12440D2*
X4940Y12190D1*
X6940Y14690D2*
Y14190D1*
X6690Y14940D2*
X6190D1*
X6690D2*
X6940Y14690D1*
Y14190D2*
X6690Y13940D1*
X6190D1*
X5690Y14940D2*
X5190D1*
X5690D2*
X5940Y14690D1*
X6190Y14940D2*
X5940Y14690D1*
X6190Y13940D2*
X5940Y14190D1*
X5690Y13940D1*
X5190D1*
X4940Y14190D1*
Y14690D1*
X5190Y14940D2*
X4940Y14690D1*
X6940Y17190D2*
Y16690D1*
X6690Y17440D2*
X6190D1*
X6690D2*
X6940Y17190D1*
Y16690D2*
X6690Y16440D1*
X6190D1*
X5690Y17440D2*
X5190D1*
X5690D2*
X5940Y17190D1*
X6190Y17440D2*
X5940Y17190D1*
X6190Y16440D2*
X5940Y16690D1*
X5690Y16440D1*
X5190D1*
X4940Y16690D1*
Y17190D1*
X5190Y17440D2*
X4940Y17190D1*
X35393Y22187D2*
X39487D1*
X35393Y22582D2*
X39487D1*
X35393Y20771D2*
X39487D1*
X35393D2*
Y22582D1*
X39487Y20771D2*
Y22582D1*
X15775Y17400D2*
X11839D1*
X15775Y16376D2*
X11839D1*
Y17400D2*
Y16376D1*
X15775Y17400D2*
Y17085D1*
Y16691D2*
Y16376D1*
Y17085D2*
G03X15775Y16691I0J-197D01*
G01*
X16987Y16532D2*
X20923D1*
X16987Y17556D2*
X20923D1*
Y16532D2*
Y17556D1*
X16987Y16532D2*
Y16847D1*
Y17241D2*
Y17556D1*
Y16847D2*
G03X16987Y17241I0J197D01*
G01*
X22215Y15830D2*
X25601D1*
X22215Y16854D2*
X25601D1*
Y15830D2*
Y16854D1*
X22215Y15830D2*
Y16145D1*
Y16539D2*
Y16854D1*
Y16145D2*
G03X22215Y16539I0J197D01*
G01*
X27764Y17374D2*
Y13438D1*
X28788Y17374D2*
Y13438D1*
X27764D2*
X28788D1*
X27764Y17374D2*
X28079D1*
X28473D2*
X28788D1*
X28079D2*
G03X28473Y17374I197J0D01*
G01*
X23190Y7440D2*
X23690D1*
X22940Y7190D2*
Y6690D1*
Y7190D2*
X23190Y7440D1*
X23690D2*
X23940Y7190D1*
Y6690D1*
X22940Y6190D2*
Y5690D1*
Y6190D2*
X23190Y6440D1*
X22940Y6690D2*
X23190Y6440D1*
X23940Y6690D2*
X23690Y6440D1*
X23940Y6190D1*
Y5690D1*
X23690Y5440D1*
X23190D1*
X22940Y5690D2*
X23190Y5440D1*
X20690Y7440D2*
X21190D1*
X20440Y7190D2*
Y6690D1*
Y7190D2*
X20690Y7440D1*
X21190D2*
X21440Y7190D1*
Y6690D1*
X20440Y6190D2*
Y5690D1*
Y6190D2*
X20690Y6440D1*
X20440Y6690D2*
X20690Y6440D1*
X21440Y6690D2*
X21190Y6440D1*
X21440Y6190D1*
Y5690D1*
X21190Y5440D1*
X20690D1*
X20440Y5690D2*
X20690Y5440D1*
X18190Y7440D2*
X18690D1*
X17940Y7190D2*
Y6690D1*
Y7190D2*
X18190Y7440D1*
X18690D2*
X18940Y7190D1*
Y6690D1*
X17940Y6190D2*
Y5690D1*
Y6190D2*
X18190Y6440D1*
X17940Y6690D2*
X18190Y6440D1*
X18940Y6690D2*
X18690Y6440D1*
X18940Y6190D1*
Y5690D1*
X18690Y5440D1*
X18190D1*
X17940Y5690D2*
X18190Y5440D1*
X15690Y7440D2*
X16190D1*
X15440Y7190D2*
Y6690D1*
Y7190D2*
X15690Y7440D1*
X16190D2*
X16440Y7190D1*
Y6690D1*
X15440Y6190D2*
Y5690D1*
Y6190D2*
X15690Y6440D1*
X15440Y6690D2*
X15690Y6440D1*
X16440Y6690D2*
X16190Y6440D1*
X16440Y6190D1*
Y5690D1*
X16190Y5440D1*
X15690D1*
X15440Y5690D2*
X15690Y5440D1*
X4940Y3940D2*
D14*
X41940D1*
X42199Y3974D1*
X42440Y4074D1*
X42647Y4233D1*
X42806Y4440D1*
X42906Y4681D1*
X42940Y4940D1*
Y21940D1*
X42906Y22199D1*
X42806Y22440D1*
X42647Y22647D1*
X42440Y22806D1*
X42199Y22906D1*
X41940Y22940D1*
X4940D1*
X4681Y22906D1*
X4440Y22806D1*
X4233Y22647D1*
X4074Y22440D1*
X3974Y22199D1*
X3940Y21940D1*
Y4940D1*
X3974Y4681D1*
X4074Y4440D1*
X4233Y4233D1*
X4440Y4074D1*
X4681Y3974D1*
X4940Y3940D1*
X9038Y16696D2*
D47*
X8990Y16672D1*
D2*
X8942Y16624D1*
D2*
X8918Y16577D1*
D2*
Y16481D1*
D2*
X8942Y16433D1*
D2*
X8990Y16386D1*
D2*
X9038Y16361D1*
D2*
X9110Y16337D1*
D2*
X9230D1*
D2*
X9301Y16361D1*
D2*
X9349Y16386D1*
D2*
X9397Y16433D1*
D2*
X9421Y16481D1*
D2*
Y16577D1*
D2*
X9397Y16624D1*
D2*
X9349Y16672D1*
D2*
X9301Y16696D1*
X9015Y16851D2*
X8990Y16899D1*
D2*
X8919Y16971D1*
D2*
X9421D1*
X12041Y10778D2*
X11993Y10754D1*
D2*
X11945Y10706D1*
D2*
X11921Y10658D1*
D2*
Y10563D1*
D2*
X11945Y10515D1*
D2*
X11993Y10467D1*
D2*
X12041Y10443D1*
D2*
X12113Y10419D1*
D2*
X12233D1*
D2*
X12304Y10443D1*
D2*
X12352Y10467D1*
D2*
X12400Y10515D1*
D2*
X12424Y10563D1*
D2*
Y10658D1*
D2*
X12400Y10706D1*
D2*
X12352Y10754D1*
D2*
X12304Y10778D1*
X12041Y10956D2*
X12018D1*
D2*
X11970Y10980D1*
D2*
X11946Y11004D1*
D2*
X11922Y11052D1*
D2*
Y11148D1*
D2*
X11946Y11195D1*
D2*
X11970Y11219D1*
D2*
X12018Y11243D1*
D2*
X12065D1*
D2*
X12113Y11219D1*
D2*
X12185Y11171D1*
D2*
X12424Y10932D1*
D2*
Y11267D1*
X9038Y10778D2*
X8990Y10754D1*
D2*
X8942Y10706D1*
D2*
X8918Y10658D1*
D2*
Y10563D1*
D2*
X8942Y10515D1*
D2*
X8990Y10467D1*
D2*
X9038Y10443D1*
D2*
X9110Y10419D1*
D2*
X9230D1*
D2*
X9301Y10443D1*
D2*
X9349Y10467D1*
D2*
X9397Y10515D1*
D2*
X9421Y10563D1*
D2*
Y10658D1*
D2*
X9397Y10706D1*
D2*
X9349Y10754D1*
D2*
X9301Y10778D1*
X8919Y10980D2*
Y11243D1*
D2*
X9110Y11100D1*
D2*
Y11171D1*
D2*
X9134Y11219D1*
D2*
X9158Y11243D1*
D2*
X9230Y11267D1*
D2*
X9277D1*
D2*
X9349Y11243D1*
D2*
X9397Y11195D1*
D2*
X9421Y11123D1*
D2*
Y11051D1*
D2*
X9397Y10980D1*
D2*
X9373Y10956D1*
D2*
X9325Y10932D1*
X9893Y19746D2*
X9869Y19794D1*
D2*
X9821Y19842D1*
D2*
X9773Y19866D1*
D2*
X9678D1*
D2*
X9630Y19842D1*
D2*
X9582Y19794D1*
D2*
X9558Y19746D1*
D2*
X9534Y19674D1*
D2*
Y19554D1*
D2*
X9558Y19483D1*
D2*
X9582Y19435D1*
D2*
X9630Y19387D1*
D2*
X9678Y19363D1*
D2*
X9773D1*
D2*
X9821Y19387D1*
D2*
X9869Y19435D1*
D2*
X9893Y19483D1*
X10334Y19794D2*
X10310Y19841D1*
D2*
X10238Y19865D1*
D2*
X10191D1*
D2*
X10119Y19841D1*
D2*
X10071Y19769D1*
D2*
X10047Y19650D1*
D2*
Y19531D1*
D2*
X10071Y19435D1*
D2*
X10119Y19387D1*
D2*
X10191Y19363D1*
D2*
X10215D1*
D2*
X10286Y19387D1*
D2*
X10334Y19435D1*
D2*
X10358Y19507D1*
D2*
Y19531D1*
D2*
X10334Y19602D1*
D2*
X10286Y19650D1*
D2*
X10215Y19674D1*
D2*
X10191D1*
D2*
X10119Y19650D1*
D2*
X10071Y19602D1*
D2*
X10047Y19531D1*
X19802Y13625D2*
X19754Y13601D1*
D2*
X19706Y13553D1*
D2*
X19682Y13505D1*
D2*
Y13410D1*
D2*
X19706Y13362D1*
D2*
X19754Y13314D1*
D2*
X19802Y13290D1*
D2*
X19874Y13266D1*
D2*
X19994D1*
D2*
X20065Y13290D1*
D2*
X20113Y13314D1*
D2*
X20161Y13362D1*
D2*
X20185Y13410D1*
D2*
Y13505D1*
D2*
X20161Y13553D1*
D2*
X20113Y13601D1*
D2*
X20065Y13625D1*
X20185Y13875D2*
X19683Y14114D1*
D2*
Y13779D1*
X22220Y12935D2*
X22172Y12911D1*
D2*
X22124Y12863D1*
D2*
X22100Y12815D1*
D2*
Y12720D1*
D2*
X22124Y12671D1*
D2*
X22172Y12624D1*
D2*
X22220Y12600D1*
D2*
X22292Y12576D1*
D2*
X22412D1*
D2*
X22483Y12600D1*
D2*
X22531Y12624D1*
D2*
X22579Y12671D1*
D2*
X22603Y12720D1*
D2*
Y12815D1*
D2*
X22579Y12863D1*
D2*
X22531Y12911D1*
D2*
X22483Y12935D1*
X22268Y13400D2*
X22340Y13376D1*
D2*
X22388Y13328D1*
D2*
X22412Y13256D1*
D2*
Y13233D1*
D2*
X22388Y13161D1*
D2*
X22340Y13113D1*
D2*
X22268Y13089D1*
D2*
X22244D1*
D2*
X22172Y13113D1*
D2*
X22125Y13161D1*
D2*
X22101Y13233D1*
D2*
Y13256D1*
D2*
X22125Y13328D1*
D2*
X22172Y13376D1*
D2*
X22268Y13400D1*
D2*
X22388D1*
D2*
X22507Y13376D1*
D2*
X22579Y13328D1*
D2*
X22603Y13256D1*
D2*
Y13209D1*
D2*
X22579Y13137D1*
D2*
X22531Y13113D1*
X11222Y20118D2*
X11174Y20094D1*
D2*
X11126Y20046D1*
D2*
X11102Y19998D1*
D2*
Y19903D1*
D2*
X11126Y19854D1*
D2*
X11174Y19807D1*
D2*
X11222Y19783D1*
D2*
X11294Y19759D1*
D2*
X11414D1*
D2*
X11485Y19783D1*
D2*
X11533Y19807D1*
D2*
X11581Y19854D1*
D2*
X11605Y19903D1*
D2*
Y19998D1*
D2*
X11581Y20046D1*
D2*
X11533Y20094D1*
D2*
X11485Y20118D1*
X11199Y20272D2*
X11174Y20320D1*
D2*
X11103Y20392D1*
D2*
X11605D1*
X11222Y20571D2*
X11199D1*
D2*
X11151Y20594D1*
D2*
X11127Y20618D1*
D2*
X11103Y20666D1*
D2*
Y20762D1*
D2*
X11127Y20809D1*
D2*
X11151Y20833D1*
D2*
X11199Y20857D1*
D2*
X11246D1*
D2*
X11294Y20833D1*
D2*
X11366Y20786D1*
D2*
X11605Y20546D1*
D2*
Y20881D1*
X11292Y14598D2*
X11268Y14646D1*
D2*
X11220Y14694D1*
D2*
X11172Y14718D1*
D2*
X11077D1*
D2*
X11029Y14694D1*
D2*
X10981Y14646D1*
D2*
X10957Y14598D1*
D2*
X10933Y14526D1*
D2*
Y14406D1*
D2*
X10957Y14335D1*
D2*
X10981Y14287D1*
D2*
X11029Y14239D1*
D2*
X11077Y14215D1*
D2*
X11172D1*
D2*
X11220Y14239D1*
D2*
X11268Y14287D1*
D2*
X11292Y14335D1*
X11446Y14621D2*
X11494Y14646D1*
D2*
X11566Y14717D1*
D2*
Y14215D1*
X11960D2*
Y14717D1*
D2*
X11720Y14383D1*
D2*
X12079D1*
X28382Y19728D2*
X28334Y19704D1*
D2*
X28286Y19656D1*
D2*
X28262Y19608D1*
D2*
Y19513D1*
D2*
X28286Y19464D1*
D2*
X28334Y19417D1*
D2*
X28382Y19393D1*
D2*
X28454Y19369D1*
D2*
X28574D1*
D2*
X28645Y19393D1*
D2*
X28693Y19417D1*
D2*
X28741Y19464D1*
D2*
X28765Y19513D1*
D2*
Y19608D1*
D2*
X28741Y19656D1*
D2*
X28693Y19704D1*
D2*
X28645Y19728D1*
X28359Y19882D2*
X28334Y19930D1*
D2*
X28263Y20002D1*
D2*
X28765D1*
X28263Y20443D2*
Y20204D1*
D2*
X28478Y20181D1*
D2*
X28454Y20204D1*
D2*
X28430Y20276D1*
D2*
Y20347D1*
D2*
X28454Y20419D1*
D2*
X28502Y20467D1*
D2*
X28574Y20491D1*
D2*
X28621D1*
D2*
X28693Y20467D1*
D2*
X28741Y20419D1*
D2*
X28765Y20347D1*
D2*
Y20276D1*
D2*
X28741Y20204D1*
D2*
X28717Y20181D1*
D2*
X28669Y20156D1*
X14124Y20760D2*
X14100Y20808D1*
D2*
X14052Y20856D1*
D2*
X14004Y20880D1*
D2*
X13909D1*
D2*
X13861Y20856D1*
D2*
X13813Y20808D1*
D2*
X13789Y20760D1*
D2*
X13765Y20688D1*
D2*
Y20568D1*
D2*
X13789Y20497D1*
D2*
X13813Y20449D1*
D2*
X13861Y20401D1*
D2*
X13909Y20377D1*
D2*
X14004D1*
D2*
X14052Y20401D1*
D2*
X14100Y20449D1*
D2*
X14124Y20497D1*
X14278Y20783D2*
X14326Y20808D1*
D2*
X14398Y20879D1*
D2*
Y20377D1*
X14839Y20808D2*
X14815Y20855D1*
D2*
X14744Y20879D1*
D2*
X14696D1*
D2*
X14624Y20855D1*
D2*
X14576Y20783D1*
D2*
X14552Y20664D1*
D2*
Y20545D1*
D2*
X14576Y20449D1*
D2*
X14624Y20401D1*
D2*
X14696Y20377D1*
D2*
X14720D1*
D2*
X14791Y20401D1*
D2*
X14839Y20449D1*
D2*
X14863Y20521D1*
D2*
Y20545D1*
D2*
X14839Y20616D1*
D2*
X14791Y20664D1*
D2*
X14720Y20688D1*
D2*
X14696D1*
D2*
X14624Y20664D1*
D2*
X14576Y20616D1*
D2*
X14552Y20545D1*
X32390Y22672D2*
Y22170D1*
D2*
X32557D1*
D2*
X32629Y22194D1*
D2*
X32677Y22242D1*
D2*
X32701Y22290D1*
D2*
X32725Y22361D1*
D2*
Y22481D1*
D2*
X32701Y22553D1*
D2*
X32677Y22600D1*
D2*
X32629Y22648D1*
D2*
X32557Y22672D1*
D2*
X32390D1*
X33238Y22553D2*
X33214Y22600D1*
D2*
X33166Y22648D1*
D2*
X33118Y22672D1*
D2*
X33023D1*
D2*
X32975Y22648D1*
D2*
X32927Y22600D1*
D2*
X32903Y22553D1*
D2*
X32879Y22481D1*
D2*
Y22361D1*
D2*
X32903Y22290D1*
D2*
X32927Y22242D1*
D2*
X32975Y22194D1*
D2*
X33023Y22170D1*
D2*
X33118D1*
D2*
X33166Y22194D1*
D2*
X33214Y22242D1*
D2*
X33238Y22290D1*
X33392Y22087D2*
X33847D1*
X34001Y22672D2*
Y22170D1*
X34490Y22672D2*
Y22170D1*
D2*
X34155Y22672D1*
D2*
Y22170D1*
X7708Y5313D2*
X8090D1*
D2*
X8162Y5289D1*
D2*
X8186Y5264D1*
D2*
X8210Y5217D1*
D2*
Y5169D1*
D2*
X8186Y5121D1*
D2*
X8162Y5098D1*
D2*
X8090Y5073D1*
D2*
X8043D1*
X8210Y5849D2*
X7708D1*
D2*
X8210Y5658D1*
D2*
X7708Y5467D1*
D2*
X8210D1*
X7971Y6004D2*
Y6219D1*
D2*
X7947Y6291D1*
D2*
X7923Y6315D1*
D2*
X7875Y6339D1*
D2*
X7803D1*
D2*
X7756Y6315D1*
D2*
X7732Y6291D1*
D2*
X7708Y6219D1*
D2*
Y6004D1*
D2*
X8210D1*
X7708Y6493D2*
X8210D1*
D2*
Y6709D1*
D2*
X8186Y6781D1*
D2*
X8162Y6804D1*
D2*
X8115Y6828D1*
D2*
X8043D1*
D2*
X7995Y6804D1*
D2*
X7971Y6781D1*
D2*
X7947Y6709D1*
D2*
X7923Y6781D1*
D2*
X7899Y6804D1*
D2*
X7851Y6828D1*
D2*
X7803D1*
D2*
X7756Y6804D1*
D2*
X7732Y6781D1*
D2*
X7708Y6709D1*
D2*
Y6493D1*
X7947D2*
Y6709D1*
X7708Y6982D2*
X8066D1*
D2*
X8138Y7006D1*
D2*
X8186Y7054D1*
D2*
X8210Y7126D1*
D2*
Y7174D1*
D2*
X8186Y7246D1*
D2*
X8138Y7294D1*
D2*
X8066Y7317D1*
D2*
X7708D1*
Y7639D2*
X8210D1*
X7708Y7472D2*
Y7807D1*
X36971Y5807D2*
Y6023D1*
D2*
X36947Y6094D1*
D2*
X36923Y6118D1*
D2*
X36875Y6142D1*
D2*
X36803D1*
D2*
X36756Y6118D1*
D2*
X36732Y6094D1*
D2*
X36708Y6023D1*
D2*
Y5807D1*
D2*
X37210D1*
X36708Y6297D2*
X37210D1*
D2*
Y6583D1*
X36708Y6882D2*
X36732Y6810D1*
D2*
X36804Y6762D1*
D2*
X36923Y6738D1*
D2*
X36995D1*
D2*
X37115Y6762D1*
D2*
X37186Y6810D1*
D2*
X37210Y6882D1*
D2*
Y6929D1*
D2*
X37186Y7001D1*
D2*
X37115Y7048D1*
D2*
X36995Y7073D1*
D2*
X36923D1*
D2*
X36804Y7048D1*
D2*
X36732Y7001D1*
D2*
X36708Y6929D1*
D2*
Y6882D1*
X36804Y7048D2*
X37115Y6762D1*
X34471Y5915D2*
Y6130D1*
D2*
X34447Y6202D1*
D2*
X34423Y6226D1*
D2*
X34375Y6250D1*
D2*
X34303D1*
D2*
X34256Y6226D1*
D2*
X34232Y6202D1*
D2*
X34208Y6130D1*
D2*
Y5915D1*
D2*
X34710D1*
X34208Y6404D2*
X34710D1*
D2*
Y6691D1*
X34304Y6845D2*
X34280Y6893D1*
D2*
X34208Y6965D1*
D2*
X34710D1*
X32104Y5807D2*
Y6023D1*
D2*
X32080Y6094D1*
D2*
X32056Y6118D1*
D2*
X32009Y6142D1*
D2*
X31937D1*
D2*
X31889Y6118D1*
D2*
X31865Y6094D1*
D2*
X31841Y6023D1*
D2*
Y5807D1*
D2*
X32344D1*
X31841Y6297D2*
X32344D1*
D2*
Y6583D1*
X31961Y6762D2*
X31937D1*
D2*
X31889Y6786D1*
D2*
X31865Y6810D1*
D2*
X31842Y6858D1*
D2*
Y6953D1*
D2*
X31865Y7001D1*
D2*
X31889Y7025D1*
D2*
X31937Y7049D1*
D2*
X31985D1*
D2*
X32033Y7025D1*
D2*
X32104Y6977D1*
D2*
X32344Y6738D1*
D2*
Y7073D1*
X29604Y5807D2*
Y6023D1*
D2*
X29580Y6094D1*
D2*
X29556Y6118D1*
D2*
X29509Y6142D1*
D2*
X29437D1*
D2*
X29389Y6118D1*
D2*
X29365Y6094D1*
D2*
X29341Y6023D1*
D2*
Y5807D1*
D2*
X29844D1*
X29341Y6297D2*
X29844D1*
D2*
Y6583D1*
X29342Y6786D2*
Y7048D1*
D2*
X29533Y6905D1*
D2*
Y6977D1*
D2*
X29557Y7025D1*
D2*
X29580Y7048D1*
D2*
X29652Y7073D1*
D2*
X29700D1*
D2*
X29772Y7048D1*
D2*
X29820Y7001D1*
D2*
X29844Y6929D1*
D2*
Y6857D1*
D2*
X29820Y6786D1*
D2*
X29795Y6762D1*
D2*
X29748Y6738D1*
X39574Y18909D2*
X39790D1*
D2*
X39861Y18933D1*
D2*
X39885Y18957D1*
D2*
X39909Y19005D1*
D2*
Y19077D1*
D2*
X39885Y19124D1*
D2*
X39861Y19148D1*
D2*
X39790Y19172D1*
D2*
X39574D1*
D2*
Y18670D1*
X40064Y19172D2*
X40183Y18670D1*
D2*
X40303Y19172D1*
D2*
X40422Y18670D1*
D2*
X40542Y19172D1*
X40697Y18933D2*
X40912D1*
D2*
X40983Y18957D1*
D2*
X41008Y18981D1*
D2*
X41031Y19029D1*
D2*
Y19077D1*
D2*
X41008Y19124D1*
D2*
X40983Y19148D1*
D2*
X40912Y19172D1*
D2*
X40697D1*
D2*
Y18670D1*
X40864Y18933D2*
X41031Y18670D1*
X41186Y19076D2*
X41234Y19100D1*
D2*
X41306Y19172D1*
D2*
Y18670D1*
X39467Y16409D2*
X39682D1*
D2*
X39754Y16433D1*
D2*
X39778Y16457D1*
D2*
X39802Y16505D1*
D2*
Y16577D1*
D2*
X39778Y16624D1*
D2*
X39754Y16648D1*
D2*
X39682Y16672D1*
D2*
X39467D1*
D2*
Y16170D1*
X39956Y16672D2*
X40076Y16170D1*
D2*
X40195Y16672D1*
D2*
X40315Y16170D1*
D2*
X40435Y16672D1*
X40589Y16433D2*
X40804D1*
D2*
X40876Y16457D1*
D2*
X40900Y16481D1*
D2*
X40924Y16529D1*
D2*
Y16577D1*
D2*
X40900Y16624D1*
D2*
X40876Y16648D1*
D2*
X40804Y16672D1*
D2*
X40589D1*
D2*
Y16170D1*
X40757Y16433D2*
X40924Y16170D1*
X41103Y16552D2*
Y16576D1*
D2*
X41126Y16624D1*
D2*
X41150Y16648D1*
D2*
X41198Y16672D1*
D2*
X41294D1*
D2*
X41341Y16648D1*
D2*
X41365Y16624D1*
D2*
X41390Y16576D1*
D2*
Y16529D1*
D2*
X41365Y16480D1*
D2*
X41318Y16409D1*
D2*
X41078Y16170D1*
D2*
X41413D1*
X30199Y10058D2*
X30151Y10035D1*
D2*
X30103Y9986D1*
D2*
X30080Y9938D1*
D2*
X30055Y9867D1*
D2*
Y9747D1*
D2*
X30080Y9675D1*
D2*
X30103Y9628D1*
D2*
X30151Y9580D1*
D2*
X30199Y9556D1*
D2*
X30295D1*
D2*
X30343Y9580D1*
D2*
X30390Y9628D1*
D2*
X30414Y9675D1*
D2*
X30438Y9747D1*
D2*
Y9867D1*
D2*
X30414Y9938D1*
D2*
X30390Y9986D1*
D2*
X30343Y10035D1*
D2*
X30295Y10058D1*
D2*
X30199D1*
X30271Y9652D2*
X30414Y9508D1*
X30593Y9962D2*
X30641Y9986D1*
D2*
X30713Y10057D1*
D2*
Y9555D1*
X32592Y10058D2*
X32544Y10035D1*
D2*
X32496Y9986D1*
D2*
X32472Y9938D1*
D2*
X32448Y9867D1*
D2*
Y9747D1*
D2*
X32472Y9675D1*
D2*
X32496Y9628D1*
D2*
X32544Y9580D1*
D2*
X32592Y9556D1*
D2*
X32687D1*
D2*
X32735Y9580D1*
D2*
X32783Y9628D1*
D2*
X32807Y9675D1*
D2*
X32831Y9747D1*
D2*
Y9867D1*
D2*
X32807Y9938D1*
D2*
X32783Y9986D1*
D2*
X32735Y10035D1*
D2*
X32687Y10058D1*
D2*
X32592D1*
X32663Y9652D2*
X32807Y9508D1*
X33010Y9938D2*
Y9962D1*
D2*
X33033Y10010D1*
D2*
X33057Y10033D1*
D2*
X33105Y10057D1*
D2*
X33201D1*
D2*
X33248Y10033D1*
D2*
X33272Y10010D1*
D2*
X33296Y9962D1*
D2*
Y9914D1*
D2*
X33272Y9866D1*
D2*
X33225Y9795D1*
D2*
X32985Y9555D1*
D2*
X33320D1*
X35092Y10058D2*
X35044Y10035D1*
D2*
X34996Y9986D1*
D2*
X34972Y9938D1*
D2*
X34948Y9867D1*
D2*
Y9747D1*
D2*
X34972Y9675D1*
D2*
X34996Y9628D1*
D2*
X35044Y9580D1*
D2*
X35092Y9556D1*
D2*
X35187D1*
D2*
X35235Y9580D1*
D2*
X35283Y9628D1*
D2*
X35307Y9675D1*
D2*
X35331Y9747D1*
D2*
Y9867D1*
D2*
X35307Y9938D1*
D2*
X35283Y9986D1*
D2*
X35235Y10035D1*
D2*
X35187Y10058D1*
D2*
X35092D1*
X35163Y9652D2*
X35307Y9508D1*
X35533Y10057D2*
X35796D1*
D2*
X35653Y9866D1*
D2*
X35725D1*
D2*
X35772Y9842D1*
D2*
X35796Y9818D1*
D2*
X35820Y9747D1*
D2*
Y9699D1*
D2*
X35796Y9627D1*
D2*
X35748Y9579D1*
D2*
X35676Y9555D1*
D2*
X35605D1*
D2*
X35533Y9579D1*
D2*
X35510Y9603D1*
D2*
X35485Y9651D1*
X37580Y10058D2*
X37532Y10035D1*
D2*
X37484Y9986D1*
D2*
X37460Y9938D1*
D2*
X37436Y9867D1*
D2*
Y9747D1*
D2*
X37460Y9675D1*
D2*
X37484Y9628D1*
D2*
X37532Y9580D1*
D2*
X37580Y9556D1*
D2*
X37675D1*
D2*
X37723Y9580D1*
D2*
X37771Y9628D1*
D2*
X37795Y9675D1*
D2*
X37819Y9747D1*
D2*
Y9867D1*
D2*
X37795Y9938D1*
D2*
X37771Y9986D1*
D2*
X37723Y10035D1*
D2*
X37675Y10058D1*
D2*
X37580D1*
X37651Y9652D2*
X37795Y9508D1*
X38213Y9555D2*
Y10057D1*
D2*
X37973Y9723D1*
D2*
X38332D1*
X15592Y10058D2*
X15544Y10035D1*
D2*
X15496Y9986D1*
D2*
X15472Y9938D1*
D2*
X15448Y9867D1*
D2*
Y9747D1*
D2*
X15472Y9675D1*
D2*
X15496Y9628D1*
D2*
X15544Y9580D1*
D2*
X15592Y9556D1*
D2*
X15687D1*
D2*
X15735Y9580D1*
D2*
X15783Y9628D1*
D2*
X15807Y9675D1*
D2*
X15831Y9747D1*
D2*
Y9867D1*
D2*
X15807Y9938D1*
D2*
X15783Y9986D1*
D2*
X15735Y10035D1*
D2*
X15687Y10058D1*
D2*
X15592D1*
X15663Y9652D2*
X15807Y9508D1*
X16272Y10057D2*
X16033D1*
D2*
X16010Y9842D1*
D2*
X16033Y9866D1*
D2*
X16105Y9890D1*
D2*
X16176D1*
D2*
X16248Y9866D1*
D2*
X16296Y9818D1*
D2*
X16320Y9747D1*
D2*
Y9699D1*
D2*
X16296Y9627D1*
D2*
X16248Y9579D1*
D2*
X16176Y9555D1*
D2*
X16105D1*
D2*
X16033Y9579D1*
D2*
X16010Y9603D1*
D2*
X15985Y9651D1*
X18104Y10058D2*
X18056Y10035D1*
D2*
X18008Y9986D1*
D2*
X17984Y9938D1*
D2*
X17960Y9867D1*
D2*
Y9747D1*
D2*
X17984Y9675D1*
D2*
X18008Y9628D1*
D2*
X18056Y9580D1*
D2*
X18104Y9556D1*
D2*
X18199D1*
D2*
X18247Y9580D1*
D2*
X18295Y9628D1*
D2*
X18319Y9675D1*
D2*
X18343Y9747D1*
D2*
Y9867D1*
D2*
X18319Y9938D1*
D2*
X18295Y9986D1*
D2*
X18247Y10035D1*
D2*
X18199Y10058D1*
D2*
X18104D1*
X18176Y9652D2*
X18319Y9508D1*
X18784Y9986D2*
X18760Y10033D1*
D2*
X18689Y10057D1*
D2*
X18641D1*
D2*
X18569Y10033D1*
D2*
X18521Y9962D1*
D2*
X18497Y9842D1*
D2*
Y9723D1*
D2*
X18521Y9627D1*
D2*
X18569Y9579D1*
D2*
X18641Y9555D1*
D2*
X18665D1*
D2*
X18736Y9579D1*
D2*
X18784Y9627D1*
D2*
X18808Y9699D1*
D2*
Y9723D1*
D2*
X18784Y9795D1*
D2*
X18736Y9842D1*
D2*
X18665Y9866D1*
D2*
X18641D1*
D2*
X18569Y9842D1*
D2*
X18521Y9795D1*
D2*
X18497Y9723D1*
X20592Y10058D2*
X20544Y10035D1*
D2*
X20496Y9986D1*
D2*
X20472Y9938D1*
D2*
X20448Y9867D1*
D2*
Y9747D1*
D2*
X20472Y9675D1*
D2*
X20496Y9628D1*
D2*
X20544Y9580D1*
D2*
X20592Y9556D1*
D2*
X20687D1*
D2*
X20735Y9580D1*
D2*
X20783Y9628D1*
D2*
X20807Y9675D1*
D2*
X20831Y9747D1*
D2*
Y9867D1*
D2*
X20807Y9938D1*
D2*
X20783Y9986D1*
D2*
X20735Y10035D1*
D2*
X20687Y10058D1*
D2*
X20592D1*
X20663Y9652D2*
X20807Y9508D1*
X21081Y9555D2*
X21320Y10057D1*
D2*
X20985D1*
X23092Y10058D2*
X23044Y10035D1*
D2*
X22996Y9986D1*
D2*
X22972Y9938D1*
D2*
X22948Y9867D1*
D2*
Y9747D1*
D2*
X22972Y9675D1*
D2*
X22996Y9628D1*
D2*
X23044Y9580D1*
D2*
X23092Y9556D1*
D2*
X23187D1*
D2*
X23236Y9580D1*
D2*
X23283Y9628D1*
D2*
X23307Y9675D1*
D2*
X23331Y9747D1*
D2*
Y9867D1*
D2*
X23307Y9938D1*
D2*
X23283Y9986D1*
D2*
X23236Y10035D1*
D2*
X23187Y10058D1*
D2*
X23092D1*
X23164Y9652D2*
X23307Y9508D1*
X23605Y10057D2*
X23534Y10033D1*
D2*
X23509Y9986D1*
D2*
Y9938D1*
D2*
X23534Y9890D1*
D2*
X23581Y9866D1*
D2*
X23677Y9842D1*
D2*
X23749Y9818D1*
D2*
X23796Y9770D1*
D2*
X23820Y9723D1*
D2*
Y9651D1*
D2*
X23796Y9603D1*
D2*
X23772Y9579D1*
D2*
X23701Y9555D1*
D2*
X23605D1*
D2*
X23534Y9579D1*
D2*
X23509Y9603D1*
D2*
X23486Y9651D1*
D2*
Y9723D1*
D2*
X23509Y9770D1*
D2*
X23557Y9818D1*
D2*
X23629Y9842D1*
D2*
X23724Y9866D1*
D2*
X23772Y9890D1*
D2*
X23796Y9938D1*
D2*
Y9986D1*
D2*
X23772Y10033D1*
D2*
X23701Y10057D1*
D2*
X23605D1*
X27449Y9017D2*
Y9232D1*
D2*
X27424Y9304D1*
D2*
X27401Y9329D1*
D2*
X27353Y9352D1*
D2*
X27305D1*
D2*
X27258Y9329D1*
D2*
X27233Y9304D1*
D2*
X27209Y9232D1*
D2*
Y9017D1*
D2*
X27712D1*
X27449Y9185D2*
X27712Y9352D1*
X27306Y9507D2*
X27281Y9555D1*
D2*
X27210Y9627D1*
D2*
X27712D1*
X30062Y10743D2*
Y10958D1*
D2*
X30037Y11030D1*
D2*
X30014Y11054D1*
D2*
X29966Y11078D1*
D2*
X29918D1*
D2*
X29871Y11054D1*
D2*
X29846Y11030D1*
D2*
X29822Y10958D1*
D2*
Y10743D1*
D2*
X30325D1*
X30062Y10910D2*
X30325Y11078D1*
X29942Y11257D2*
X29919D1*
D2*
X29871Y11280D1*
D2*
X29847Y11304D1*
D2*
X29823Y11352D1*
D2*
Y11448D1*
D2*
X29847Y11495D1*
D2*
X29871Y11519D1*
D2*
X29919Y11543D1*
D2*
X29966D1*
D2*
X30014Y11519D1*
D2*
X30086Y11472D1*
D2*
X30325Y11232D1*
D2*
Y11567D1*
X31856Y10743D2*
Y10958D1*
D2*
X31831Y11030D1*
D2*
X31808Y11054D1*
D2*
X31760Y11078D1*
D2*
X31712D1*
D2*
X31665Y11054D1*
D2*
X31640Y11030D1*
D2*
X31616Y10958D1*
D2*
Y10743D1*
D2*
X32119D1*
X31856Y10910D2*
X32119Y11078D1*
X31617Y11280D2*
Y11543D1*
D2*
X31808Y11400D1*
D2*
Y11472D1*
D2*
X31832Y11519D1*
D2*
X31856Y11543D1*
D2*
X31928Y11567D1*
D2*
X31975D1*
D2*
X32047Y11543D1*
D2*
X32095Y11495D1*
D2*
X32119Y11423D1*
D2*
Y11352D1*
D2*
X32095Y11280D1*
D2*
X32071Y11257D1*
D2*
X32023Y11232D1*
X31284Y14049D2*
X31499D1*
D2*
X31571Y14074D1*
D2*
X31595Y14097D1*
D2*
X31619Y14145D1*
D2*
Y14193D1*
D2*
X31595Y14240D1*
D2*
X31571Y14265D1*
D2*
X31499Y14289D1*
D2*
X31284D1*
D2*
Y13786D1*
X31451Y14049D2*
X31619Y13786D1*
X32013D2*
Y14288D1*
D2*
X31773Y13954D1*
D2*
X32132D1*
X34884Y11592D2*
X35099D1*
D2*
X35171Y11617D1*
D2*
X35195Y11640D1*
D2*
X35219Y11688D1*
D2*
Y11736D1*
D2*
X35195Y11783D1*
D2*
X35171Y11808D1*
D2*
X35099Y11832D1*
D2*
X34884D1*
D2*
Y11329D1*
X35051Y11592D2*
X35219Y11329D1*
X35660Y11831D2*
X35421D1*
D2*
X35398Y11616D1*
D2*
X35421Y11640D1*
D2*
X35493Y11664D1*
D2*
X35564D1*
D2*
X35636Y11640D1*
D2*
X35684Y11592D1*
D2*
X35708Y11520D1*
D2*
Y11473D1*
D2*
X35684Y11401D1*
D2*
X35636Y11353D1*
D2*
X35564Y11329D1*
D2*
X35493D1*
D2*
X35421Y11353D1*
D2*
X35398Y11377D1*
D2*
X35373Y11425D1*
X34350Y13386D2*
X34565D1*
D2*
X34637Y13411D1*
D2*
X34661Y13434D1*
D2*
X34685Y13482D1*
D2*
Y13530D1*
D2*
X34661Y13577D1*
D2*
X34637Y13602D1*
D2*
X34565Y13626D1*
D2*
X34350D1*
D2*
Y13123D1*
X34517Y13386D2*
X34685Y13123D1*
X35126Y13554D2*
X35102Y13601D1*
D2*
X35031Y13625D1*
D2*
X34983D1*
D2*
X34911Y13601D1*
D2*
X34863Y13529D1*
D2*
X34839Y13410D1*
D2*
Y13291D1*
D2*
X34863Y13195D1*
D2*
X34911Y13147D1*
D2*
X34983Y13123D1*
D2*
X35007D1*
D2*
X35078Y13147D1*
D2*
X35126Y13195D1*
D2*
X35150Y13267D1*
D2*
Y13291D1*
D2*
X35126Y13362D1*
D2*
X35078Y13410D1*
D2*
X35007Y13434D1*
D2*
X34983D1*
D2*
X34911Y13410D1*
D2*
X34863Y13362D1*
D2*
X34839Y13291D1*
X36653Y10743D2*
Y10958D1*
D2*
X36628Y11030D1*
D2*
X36605Y11054D1*
D2*
X36557Y11078D1*
D2*
X36509D1*
D2*
X36462Y11054D1*
D2*
X36437Y11030D1*
D2*
X36413Y10958D1*
D2*
Y10743D1*
D2*
X36916D1*
X36653Y10910D2*
X36916Y11078D1*
Y11328D2*
X36414Y11567D1*
D2*
Y11232D1*
X38447Y11328D2*
Y11543D1*
D2*
X38422Y11615D1*
D2*
X38399Y11639D1*
D2*
X38351Y11663D1*
D2*
X38303D1*
D2*
X38256Y11639D1*
D2*
X38231Y11615D1*
D2*
X38207Y11543D1*
D2*
Y11328D1*
D2*
X38710D1*
X38447Y11496D2*
X38710Y11663D1*
X38208Y11937D2*
X38232Y11866D1*
D2*
X38279Y11841D1*
D2*
X38327D1*
D2*
X38375Y11866D1*
D2*
X38399Y11913D1*
D2*
X38423Y12009D1*
D2*
X38447Y12081D1*
D2*
X38495Y12128D1*
D2*
X38542Y12152D1*
D2*
X38614D1*
D2*
X38662Y12128D1*
D2*
X38686Y12104D1*
D2*
X38710Y12032D1*
D2*
Y11937D1*
D2*
X38686Y11866D1*
D2*
X38662Y11841D1*
D2*
X38614Y11817D1*
D2*
X38542D1*
D2*
X38495Y11841D1*
D2*
X38447Y11889D1*
D2*
X38423Y11961D1*
D2*
X38399Y12056D1*
D2*
X38375Y12104D1*
D2*
X38327Y12128D1*
D2*
X38279D1*
D2*
X38232Y12104D1*
D2*
X38208Y12032D1*
D2*
Y11937D1*
X7414Y17728D2*
X7629D1*
D2*
X7701Y17753D1*
D2*
X7725Y17776D1*
D2*
X7749Y17824D1*
D2*
Y17872D1*
D2*
X7725Y17919D1*
D2*
X7701Y17944D1*
D2*
X7629Y17968D1*
D2*
X7414D1*
D2*
Y17465D1*
X7581Y17728D2*
X7749Y17465D1*
X8214Y17800D2*
X8190Y17728D1*
D2*
X8142Y17680D1*
D2*
X8071Y17656D1*
D2*
X8047D1*
D2*
X7975Y17680D1*
D2*
X7927Y17728D1*
D2*
X7903Y17800D1*
D2*
Y17824D1*
D2*
X7927Y17896D1*
D2*
X7975Y17943D1*
D2*
X8047Y17967D1*
D2*
X8071D1*
D2*
X8142Y17943D1*
D2*
X8190Y17896D1*
D2*
X8214Y17800D1*
D2*
Y17680D1*
D2*
X8190Y17561D1*
D2*
X8142Y17489D1*
D2*
X8071Y17465D1*
D2*
X8023D1*
D2*
X7951Y17489D1*
D2*
X7927Y17537D1*
X7265Y10228D2*
X7480D1*
D2*
X7552Y10253D1*
D2*
X7576Y10276D1*
D2*
X7600Y10324D1*
D2*
Y10372D1*
D2*
X7576Y10419D1*
D2*
X7552Y10444D1*
D2*
X7480Y10468D1*
D2*
X7265D1*
D2*
Y9965D1*
X7432Y10228D2*
X7600Y9965D1*
X7754Y10371D2*
X7802Y10396D1*
D2*
X7874Y10467D1*
D2*
Y9965D1*
X8172Y10467D2*
X8100Y10443D1*
D2*
X8052Y10371D1*
D2*
X8028Y10252D1*
D2*
Y10180D1*
D2*
X8052Y10061D1*
D2*
X8100Y9989D1*
D2*
X8172Y9965D1*
D2*
X8220D1*
D2*
X8291Y9989D1*
D2*
X8339Y10061D1*
D2*
X8363Y10180D1*
D2*
Y10252D1*
D2*
X8339Y10371D1*
D2*
X8291Y10443D1*
D2*
X8220Y10467D1*
D2*
X8172D1*
X8339Y10371D2*
X8052Y10061D1*
X7372Y12728D2*
X7587D1*
D2*
X7659Y12753D1*
D2*
X7683Y12776D1*
D2*
X7707Y12824D1*
D2*
Y12872D1*
D2*
X7683Y12919D1*
D2*
X7659Y12944D1*
D2*
X7587Y12968D1*
D2*
X7372D1*
D2*
Y12465D1*
X7540Y12728D2*
X7707Y12465D1*
X7862Y12871D2*
X7910Y12896D1*
D2*
X7981Y12967D1*
D2*
Y12465D1*
X8136Y12871D2*
X8184Y12896D1*
D2*
X8256Y12967D1*
D2*
Y12465D1*
X7265Y15228D2*
X7480D1*
D2*
X7552Y15253D1*
D2*
X7576Y15276D1*
D2*
X7600Y15324D1*
D2*
Y15372D1*
D2*
X7576Y15419D1*
D2*
X7552Y15444D1*
D2*
X7480Y15468D1*
D2*
X7265D1*
D2*
Y14965D1*
X7432Y15228D2*
X7600Y14965D1*
X7754Y15371D2*
X7802Y15396D1*
D2*
X7874Y15467D1*
D2*
Y14965D1*
X8053Y15348D2*
Y15371D1*
D2*
X8076Y15419D1*
D2*
X8100Y15443D1*
D2*
X8148Y15467D1*
D2*
X8244D1*
D2*
X8291Y15443D1*
D2*
X8315Y15419D1*
D2*
X8340Y15371D1*
D2*
Y15324D1*
D2*
X8315Y15276D1*
D2*
X8268Y15204D1*
D2*
X8028Y14965D1*
D2*
X8363D1*
X14657Y10606D2*
Y10821D1*
D2*
X14632Y10893D1*
D2*
X14609Y10917D1*
D2*
X14561Y10941D1*
D2*
X14513D1*
D2*
X14466Y10917D1*
D2*
X14441Y10893D1*
D2*
X14417Y10821D1*
D2*
Y10606D1*
D2*
X14920D1*
X14657Y10773D2*
X14920Y10941D1*
X14514Y11095D2*
X14489Y11143D1*
D2*
X14418Y11215D1*
D2*
X14920D1*
X14418Y11417D2*
Y11680D1*
D2*
X14609Y11537D1*
D2*
Y11609D1*
D2*
X14633Y11656D1*
D2*
X14657Y11680D1*
D2*
X14729Y11704D1*
D2*
X14776D1*
D2*
X14848Y11680D1*
D2*
X14896Y11632D1*
D2*
X14920Y11561D1*
D2*
Y11489D1*
D2*
X14896Y11417D1*
D2*
X14872Y11394D1*
D2*
X14824Y11369D1*
X16451Y10594D2*
Y10809D1*
D2*
X16426Y10881D1*
D2*
X16403Y10905D1*
D2*
X16355Y10929D1*
D2*
X16307D1*
D2*
X16260Y10905D1*
D2*
X16235Y10881D1*
D2*
X16211Y10809D1*
D2*
Y10594D1*
D2*
X16714D1*
X16451Y10761D2*
X16714Y10929D1*
X16308Y11083D2*
X16283Y11131D1*
D2*
X16212Y11203D1*
D2*
X16714D1*
Y11597D2*
X16212D1*
D2*
X16546Y11357D1*
D2*
Y11716D1*
X17153Y13063D2*
Y13278D1*
D2*
X17128Y13350D1*
D2*
X17105Y13374D1*
D2*
X17057Y13398D1*
D2*
X17009D1*
D2*
X16962Y13374D1*
D2*
X16937Y13350D1*
D2*
X16913Y13278D1*
D2*
Y13063D1*
D2*
X17416D1*
X17153Y13230D2*
X17416Y13398D1*
X17010Y13552D2*
X16985Y13600D1*
D2*
X16914Y13672D1*
D2*
X17416D1*
X16914Y14113D2*
Y13874D1*
D2*
X17129Y13851D1*
D2*
X17105Y13874D1*
D2*
X17081Y13946D1*
D2*
Y14018D1*
D2*
X17105Y14089D1*
D2*
X17153Y14138D1*
D2*
X17225Y14161D1*
D2*
X17272D1*
D2*
X17344Y14138D1*
D2*
X17392Y14089D1*
D2*
X17416Y14018D1*
D2*
Y13946D1*
D2*
X17392Y13874D1*
D2*
X17368Y13851D1*
D2*
X17320Y13826D1*
X15359Y13075D2*
Y13290D1*
D2*
X15334Y13362D1*
D2*
X15311Y13386D1*
D2*
X15263Y13410D1*
D2*
X15215D1*
D2*
X15168Y13386D1*
D2*
X15143Y13362D1*
D2*
X15119Y13290D1*
D2*
Y13075D1*
D2*
X15622D1*
X15359Y13242D2*
X15622Y13410D1*
X15216Y13564D2*
X15191Y13612D1*
D2*
X15120Y13684D1*
D2*
X15622D1*
X15191Y14125D2*
X15144Y14102D1*
D2*
X15120Y14030D1*
D2*
Y13982D1*
D2*
X15144Y13910D1*
D2*
X15216Y13862D1*
D2*
X15335Y13839D1*
D2*
X15454D1*
D2*
X15550Y13862D1*
D2*
X15598Y13910D1*
D2*
X15622Y13982D1*
D2*
Y14006D1*
D2*
X15598Y14077D1*
D2*
X15550Y14125D1*
D2*
X15478Y14149D1*
D2*
X15454D1*
D2*
X15383Y14125D1*
D2*
X15335Y14077D1*
D2*
X15311Y14006D1*
D2*
Y13982D1*
D2*
X15335Y13910D1*
D2*
X15383Y13862D1*
D2*
X15454Y13839D1*
X19649Y10606D2*
Y10821D1*
D2*
X19624Y10893D1*
D2*
X19601Y10917D1*
D2*
X19553Y10941D1*
D2*
X19505D1*
D2*
X19458Y10917D1*
D2*
X19433Y10893D1*
D2*
X19409Y10821D1*
D2*
Y10606D1*
D2*
X19912D1*
X19649Y10773D2*
X19912Y10941D1*
X19506Y11095D2*
X19481Y11143D1*
D2*
X19410Y11215D1*
D2*
X19912D1*
Y11465D2*
X19410Y11704D1*
D2*
Y11369D1*
X24685Y12723D2*
X24900D1*
D2*
X24972Y12748D1*
D2*
X24996Y12771D1*
D2*
X25020Y12819D1*
D2*
Y12867D1*
D2*
X24996Y12914D1*
D2*
X24972Y12939D1*
D2*
X24900Y12963D1*
D2*
X24685D1*
D2*
Y12460D1*
X24852Y12723D2*
X25020Y12460D1*
X25174Y12866D2*
X25222Y12891D1*
D2*
X25294Y12962D1*
D2*
Y12460D1*
X25568Y12962D2*
X25497Y12938D1*
D2*
X25472Y12891D1*
D2*
Y12843D1*
D2*
X25497Y12795D1*
D2*
X25544Y12771D1*
D2*
X25640Y12747D1*
D2*
X25712Y12723D1*
D2*
X25759Y12675D1*
D2*
X25783Y12628D1*
D2*
Y12556D1*
D2*
X25759Y12508D1*
D2*
X25735Y12484D1*
D2*
X25664Y12460D1*
D2*
X25568D1*
D2*
X25497Y12484D1*
D2*
X25472Y12508D1*
D2*
X25449Y12556D1*
D2*
Y12628D1*
D2*
X25472Y12675D1*
D2*
X25520Y12723D1*
D2*
X25592Y12747D1*
D2*
X25687Y12771D1*
D2*
X25735Y12795D1*
D2*
X25759Y12843D1*
D2*
Y12891D1*
D2*
X25735Y12938D1*
D2*
X25664Y12962D1*
D2*
X25568D1*
X22045Y11592D2*
X22260D1*
D2*
X22331Y11617D1*
D2*
X22356Y11640D1*
D2*
X22380Y11688D1*
D2*
Y11736D1*
D2*
X22356Y11783D1*
D2*
X22331Y11808D1*
D2*
X22260Y11832D1*
D2*
X22045D1*
D2*
Y11329D1*
X22212Y11592D2*
X22380Y11329D1*
X22534Y11735D2*
X22582Y11760D1*
D2*
X22654Y11831D1*
D2*
Y11329D1*
X23119Y11664D2*
X23095Y11592D1*
D2*
X23048Y11544D1*
D2*
X22976Y11520D1*
D2*
X22952D1*
D2*
X22880Y11544D1*
D2*
X22833Y11592D1*
D2*
X22808Y11664D1*
D2*
Y11688D1*
D2*
X22833Y11760D1*
D2*
X22880Y11807D1*
D2*
X22952Y11831D1*
D2*
X22976D1*
D2*
X23048Y11807D1*
D2*
X23095Y11760D1*
D2*
X23119Y11664D1*
D2*
Y11544D1*
D2*
X23095Y11425D1*
D2*
X23048Y11353D1*
D2*
X22976Y11329D1*
D2*
X22928D1*
D2*
X22856Y11353D1*
D2*
X22833Y11401D1*
X13384Y14049D2*
X13599D1*
D2*
X13671Y14074D1*
D2*
X13695Y14097D1*
D2*
X13719Y14145D1*
D2*
Y14193D1*
D2*
X13695Y14240D1*
D2*
X13671Y14265D1*
D2*
X13599Y14289D1*
D2*
X13384D1*
D2*
Y13786D1*
X13552Y14049D2*
X13719Y13786D1*
X13898Y14169D2*
Y14192D1*
D2*
X13922Y14240D1*
D2*
X13945Y14264D1*
D2*
X13993Y14288D1*
D2*
X14089D1*
D2*
X14137Y14264D1*
D2*
X14160Y14240D1*
D2*
X14185Y14192D1*
D2*
Y14145D1*
D2*
X14160Y14097D1*
D2*
X14113Y14025D1*
D2*
X13874Y13786D1*
D2*
X14208D1*
X14507Y14288D2*
X14435Y14264D1*
D2*
X14387Y14192D1*
D2*
X14363Y14073D1*
D2*
Y14001D1*
D2*
X14387Y13882D1*
D2*
X14435Y13810D1*
D2*
X14507Y13786D1*
D2*
X14554D1*
D2*
X14626Y13810D1*
D2*
X14673Y13882D1*
D2*
X14698Y14001D1*
D2*
Y14073D1*
D2*
X14673Y14192D1*
D2*
X14626Y14264D1*
D2*
X14554Y14288D1*
D2*
X14507D1*
X14673Y14192D2*
X14387Y13882D1*
X10652Y7765D2*
Y7980D1*
D2*
X10627Y8052D1*
D2*
X10604Y8076D1*
D2*
X10556Y8100D1*
D2*
X10508D1*
D2*
X10461Y8076D1*
D2*
X10436Y8052D1*
D2*
X10412Y7980D1*
D2*
Y7765D1*
D2*
X10915D1*
X10652Y7932D2*
X10915Y8100D1*
X10532Y8278D2*
X10509D1*
D2*
X10461Y8302D1*
D2*
X10437Y8326D1*
D2*
X10413Y8374D1*
D2*
Y8470D1*
D2*
X10437Y8517D1*
D2*
X10461Y8541D1*
D2*
X10509Y8565D1*
D2*
X10556D1*
D2*
X10604Y8541D1*
D2*
X10676Y8493D1*
D2*
X10915Y8254D1*
D2*
Y8589D1*
X10509Y8743D2*
X10484Y8791D1*
D2*
X10413Y8863D1*
D2*
X10915D1*
X12152Y7657D2*
Y7872D1*
D2*
X12127Y7944D1*
D2*
X12104Y7968D1*
D2*
X12056Y7992D1*
D2*
X12008D1*
D2*
X11961Y7968D1*
D2*
X11936Y7944D1*
D2*
X11912Y7872D1*
D2*
Y7657D1*
D2*
X12415D1*
X12152Y7825D2*
X12415Y7992D1*
X12032Y8171D2*
X12009D1*
D2*
X11961Y8195D1*
D2*
X11937Y8218D1*
D2*
X11913Y8266D1*
D2*
Y8362D1*
D2*
X11937Y8410D1*
D2*
X11961Y8433D1*
D2*
X12009Y8458D1*
D2*
X12056D1*
D2*
X12104Y8433D1*
D2*
X12176Y8386D1*
D2*
X12415Y8147D1*
D2*
Y8481D1*
X12032Y8660D2*
X12009D1*
D2*
X11961Y8684D1*
D2*
X11937Y8708D1*
D2*
X11913Y8756D1*
D2*
Y8851D1*
D2*
X11937Y8899D1*
D2*
X11961Y8923D1*
D2*
X12009Y8947D1*
D2*
X12056D1*
D2*
X12104Y8923D1*
D2*
X12176Y8875D1*
D2*
X12415Y8636D1*
D2*
Y8971D1*
X6152Y6657D2*
Y6872D1*
D2*
X6127Y6944D1*
D2*
X6104Y6968D1*
D2*
X6056Y6992D1*
D2*
X6008D1*
D2*
X5961Y6968D1*
D2*
X5936Y6944D1*
D2*
X5912Y6872D1*
D2*
Y6657D1*
D2*
X6415D1*
X6152Y6825D2*
X6415Y6992D1*
X6032Y7171D2*
X6009D1*
D2*
X5961Y7195D1*
D2*
X5937Y7218D1*
D2*
X5913Y7266D1*
D2*
Y7362D1*
D2*
X5937Y7410D1*
D2*
X5961Y7433D1*
D2*
X6009Y7458D1*
D2*
X6056D1*
D2*
X6104Y7433D1*
D2*
X6176Y7386D1*
D2*
X6415Y7147D1*
D2*
Y7481D1*
X5913Y7684D2*
Y7946D1*
D2*
X6104Y7803D1*
D2*
Y7875D1*
D2*
X6128Y7923D1*
D2*
X6152Y7946D1*
D2*
X6224Y7971D1*
D2*
X6271D1*
D2*
X6343Y7946D1*
D2*
X6391Y7899D1*
D2*
X6415Y7827D1*
D2*
Y7755D1*
D2*
X6391Y7684D1*
D2*
X6367Y7660D1*
D2*
X6319Y7636D1*
X8652Y7645D2*
Y7860D1*
D2*
X8627Y7932D1*
D2*
X8604Y7957D1*
D2*
X8556Y7980D1*
D2*
X8508D1*
D2*
X8461Y7957D1*
D2*
X8436Y7932D1*
D2*
X8412Y7860D1*
D2*
Y7645D1*
D2*
X8915D1*
X8652Y7813D2*
X8915Y7980D1*
X8532Y8159D2*
X8509D1*
D2*
X8461Y8183D1*
D2*
X8437Y8207D1*
D2*
X8413Y8255D1*
D2*
Y8350D1*
D2*
X8437Y8398D1*
D2*
X8461Y8422D1*
D2*
X8509Y8446D1*
D2*
X8556D1*
D2*
X8604Y8422D1*
D2*
X8676Y8374D1*
D2*
X8915Y8135D1*
D2*
Y8470D1*
Y8863D2*
X8413D1*
D2*
X8747Y8624D1*
D2*
Y8983D1*
X10280Y5396D2*
X10232Y5349D1*
D2*
X10208Y5277D1*
D2*
Y5181D1*
D2*
X10232Y5109D1*
D2*
X10280Y5061D1*
D2*
X10327D1*
D2*
X10375Y5086D1*
D2*
X10399Y5109D1*
D2*
X10423Y5157D1*
D2*
X10471Y5301D1*
D2*
X10495Y5349D1*
D2*
X10519Y5373D1*
D2*
X10566Y5396D1*
D2*
X10638D1*
D2*
X10686Y5349D1*
D2*
X10710Y5277D1*
D2*
Y5181D1*
D2*
X10686Y5109D1*
D2*
X10638Y5061D1*
X10208Y5861D2*
Y5551D1*
D2*
X10710D1*
D2*
Y5861D1*
X10447Y5551D2*
Y5742D1*
X10208Y6183D2*
X10710D1*
X10208Y6016D2*
Y6351D1*
Y6505D2*
X10710D1*
D2*
Y6721D1*
D2*
X10686Y6792D1*
D2*
X10662Y6816D1*
D2*
X10615Y6840D1*
D2*
X10543D1*
D2*
X10495Y6816D1*
D2*
X10471Y6792D1*
D2*
X10447Y6721D1*
D2*
X10423Y6792D1*
D2*
X10399Y6816D1*
D2*
X10351Y6840D1*
D2*
X10303D1*
D2*
X10256Y6816D1*
D2*
X10232Y6792D1*
D2*
X10208Y6721D1*
D2*
Y6505D1*
X10447D2*
Y6721D1*
X10208Y6994D2*
X10566D1*
D2*
X10638Y7018D1*
D2*
X10686Y7066D1*
D2*
X10710Y7138D1*
D2*
Y7186D1*
D2*
X10686Y7257D1*
D2*
X10638Y7306D1*
D2*
X10566Y7329D1*
D2*
X10208D1*
Y7651D2*
X10710D1*
X10208Y7484D2*
Y7819D1*
X5546Y10600D2*
X5499Y10648D1*
D2*
X5427Y10672D1*
D2*
X5331D1*
D2*
X5259Y10648D1*
D2*
X5211Y10600D1*
D2*
Y10553D1*
D2*
X5236Y10505D1*
D2*
X5259Y10481D1*
D2*
X5307Y10457D1*
D2*
X5451Y10409D1*
D2*
X5499Y10385D1*
D2*
X5523Y10361D1*
D2*
X5546Y10314D1*
D2*
Y10242D1*
D2*
X5499Y10194D1*
D2*
X5427Y10170D1*
D2*
X5331D1*
D2*
X5259Y10194D1*
D2*
X5211Y10242D1*
X5701Y10672D2*
X5821Y10170D1*
D2*
X5940Y10672D1*
D2*
X6059Y10170D1*
D2*
X6179Y10672D1*
X6477D2*
X6406Y10648D1*
D2*
X6357Y10576D1*
D2*
X6334Y10457D1*
D2*
Y10385D1*
D2*
X6357Y10265D1*
D2*
X6406Y10194D1*
D2*
X6477Y10170D1*
D2*
X6525D1*
D2*
X6597Y10194D1*
D2*
X6644Y10265D1*
D2*
X6669Y10385D1*
D2*
Y10457D1*
D2*
X6644Y10576D1*
D2*
X6597Y10648D1*
D2*
X6525Y10672D1*
D2*
X6477D1*
X6644Y10576D2*
X6357Y10265D1*
X5654Y13100D2*
X5606Y13148D1*
D2*
X5534Y13172D1*
D2*
X5439D1*
D2*
X5367Y13148D1*
D2*
X5319Y13100D1*
D2*
Y13053D1*
D2*
X5343Y13005D1*
D2*
X5367Y12981D1*
D2*
X5414Y12957D1*
D2*
X5558Y12909D1*
D2*
X5606Y12885D1*
D2*
X5630Y12861D1*
D2*
X5654Y12814D1*
D2*
Y12742D1*
D2*
X5606Y12694D1*
D2*
X5534Y12670D1*
D2*
X5439D1*
D2*
X5367Y12694D1*
D2*
X5319Y12742D1*
X5808Y13172D2*
X5928Y12670D1*
D2*
X6047Y13172D1*
D2*
X6167Y12670D1*
D2*
X6287Y13172D1*
X6441Y13076D2*
X6489Y13100D1*
D2*
X6561Y13172D1*
D2*
Y12670D1*
X5546Y15600D2*
X5499Y15648D1*
D2*
X5427Y15672D1*
D2*
X5331D1*
D2*
X5259Y15648D1*
D2*
X5211Y15600D1*
D2*
Y15553D1*
D2*
X5236Y15505D1*
D2*
X5259Y15481D1*
D2*
X5307Y15457D1*
D2*
X5451Y15409D1*
D2*
X5499Y15385D1*
D2*
X5523Y15361D1*
D2*
X5546Y15314D1*
D2*
Y15242D1*
D2*
X5499Y15194D1*
D2*
X5427Y15170D1*
D2*
X5331D1*
D2*
X5259Y15194D1*
D2*
X5211Y15242D1*
X5701Y15672D2*
X5821Y15170D1*
D2*
X5940Y15672D1*
D2*
X6059Y15170D1*
D2*
X6179Y15672D1*
X6358Y15552D2*
Y15576D1*
D2*
X6382Y15624D1*
D2*
X6406Y15648D1*
D2*
X6454Y15672D1*
D2*
X6549D1*
D2*
X6597Y15648D1*
D2*
X6621Y15624D1*
D2*
X6645Y15576D1*
D2*
Y15529D1*
D2*
X6621Y15480D1*
D2*
X6573Y15409D1*
D2*
X6334Y15170D1*
D2*
X6669D1*
X5546Y18100D2*
X5499Y18148D1*
D2*
X5427Y18172D1*
D2*
X5331D1*
D2*
X5259Y18148D1*
D2*
X5211Y18100D1*
D2*
Y18053D1*
D2*
X5236Y18005D1*
D2*
X5259Y17981D1*
D2*
X5307Y17957D1*
D2*
X5451Y17909D1*
D2*
X5499Y17885D1*
D2*
X5523Y17861D1*
D2*
X5546Y17814D1*
D2*
Y17742D1*
D2*
X5499Y17694D1*
D2*
X5427Y17670D1*
D2*
X5331D1*
D2*
X5259Y17694D1*
D2*
X5211Y17742D1*
X5701Y18172D2*
X5821Y17670D1*
D2*
X5940Y18172D1*
D2*
X6059Y17670D1*
D2*
X6179Y18172D1*
X6382D2*
X6644D1*
D2*
X6501Y17980D1*
D2*
X6573D1*
D2*
X6621Y17957D1*
D2*
X6644Y17933D1*
D2*
X6669Y17861D1*
D2*
Y17814D1*
D2*
X6644Y17742D1*
D2*
X6597Y17694D1*
D2*
X6525Y17670D1*
D2*
X6453D1*
D2*
X6382Y17694D1*
D2*
X6358Y17718D1*
D2*
X6334Y17765D1*
X13395Y19077D2*
Y18718D1*
D2*
X13419Y18646D1*
D2*
X13467Y18599D1*
D2*
X13539Y18575D1*
D2*
X13586D1*
D2*
X13658Y18599D1*
D2*
X13706Y18646D1*
D2*
X13730Y18718D1*
D2*
Y19077D1*
X13932Y19076D2*
X14195D1*
D2*
X14052Y18885D1*
D2*
X14124D1*
D2*
X14171Y18861D1*
D2*
X14195Y18838D1*
D2*
X14219Y18766D1*
D2*
Y18718D1*
D2*
X14195Y18646D1*
D2*
X14147Y18598D1*
D2*
X14075Y18575D1*
D2*
X14004D1*
D2*
X13932Y18598D1*
D2*
X13909Y18623D1*
D2*
X13884Y18670D1*
X18531Y19233D2*
Y18874D1*
D2*
X18555Y18802D1*
D2*
X18603Y18755D1*
D2*
X18675Y18731D1*
D2*
X18722D1*
D2*
X18794Y18755D1*
D2*
X18842Y18802D1*
D2*
X18866Y18874D1*
D2*
Y19233D1*
X19260Y18731D2*
Y19232D1*
D2*
X19020Y18898D1*
D2*
X19379D1*
X23496Y18531D2*
Y18172D1*
D2*
X23520Y18100D1*
D2*
X23568Y18053D1*
D2*
X23640Y18029D1*
D2*
X23687D1*
D2*
X23759Y18053D1*
D2*
X23807Y18100D1*
D2*
X23831Y18172D1*
D2*
Y18531D1*
X24272Y18530D2*
X24033D1*
D2*
X24010Y18315D1*
D2*
X24033Y18339D1*
D2*
X24105Y18363D1*
D2*
X24176D1*
D2*
X24248Y18339D1*
D2*
X24296Y18292D1*
D2*
X24320Y18220D1*
D2*
Y18172D1*
D2*
X24296Y18100D1*
D2*
X24248Y18052D1*
D2*
X24176Y18029D1*
D2*
X24105D1*
D2*
X24033Y18052D1*
D2*
X24010Y18077D1*
D2*
X23985Y18124D1*
X27876Y18107D2*
Y17748D1*
D2*
X27900Y17676D1*
D2*
X27948Y17628D1*
D2*
X28020Y17604D1*
D2*
X28067D1*
D2*
X28139Y17628D1*
D2*
X28187Y17676D1*
D2*
X28211Y17748D1*
D2*
Y18107D1*
X28652Y18035D2*
X28628Y18082D1*
D2*
X28557Y18106D1*
D2*
X28509D1*
D2*
X28437Y18082D1*
D2*
X28389Y18010D1*
D2*
X28365Y17891D1*
D2*
Y17772D1*
D2*
X28389Y17676D1*
D2*
X28437Y17628D1*
D2*
X28509Y17604D1*
D2*
X28533D1*
D2*
X28604Y17628D1*
D2*
X28652Y17676D1*
D2*
X28676Y17748D1*
D2*
Y17772D1*
D2*
X28652Y17843D1*
D2*
X28604Y17891D1*
D2*
X28533Y17915D1*
D2*
X28509D1*
D2*
X28437Y17891D1*
D2*
X28389Y17843D1*
D2*
X28365Y17772D1*
X22208Y5783D2*
X22710Y5975D1*
D2*
X22208Y6166D1*
Y6320D2*
X22710D1*
D2*
Y6607D1*
X22208Y6905D2*
X22232Y6833D1*
D2*
X22304Y6785D1*
D2*
X22423Y6762D1*
D2*
X22495D1*
D2*
X22615Y6785D1*
D2*
X22686Y6833D1*
D2*
X22710Y6905D1*
D2*
Y6953D1*
D2*
X22686Y7025D1*
D2*
X22615Y7072D1*
D2*
X22495Y7097D1*
D2*
X22423D1*
D2*
X22304Y7072D1*
D2*
X22232Y7025D1*
D2*
X22208Y6953D1*
D2*
Y6905D1*
X22304Y7072D2*
X22615Y6785D1*
X19708Y5891D2*
X20210Y6082D1*
D2*
X19708Y6273D1*
Y6428D2*
X20210D1*
D2*
Y6715D1*
X19804Y6869D2*
X19780Y6917D1*
D2*
X19708Y6989D1*
D2*
X20210D1*
X17208Y5783D2*
X17710Y5975D1*
D2*
X17208Y6166D1*
Y6320D2*
X17710D1*
D2*
Y6607D1*
X17328Y6786D2*
X17304D1*
D2*
X17256Y6810D1*
D2*
X17232Y6833D1*
D2*
X17208Y6882D1*
D2*
Y6977D1*
D2*
X17232Y7025D1*
D2*
X17256Y7048D1*
D2*
X17304Y7073D1*
D2*
X17351D1*
D2*
X17400Y7048D1*
D2*
X17471Y7001D1*
D2*
X17710Y6762D1*
D2*
Y7097D1*
X14708Y5783D2*
X15210Y5975D1*
D2*
X14708Y6166D1*
Y6320D2*
X15210D1*
D2*
Y6607D1*
X14708Y6810D2*
Y7072D1*
D2*
X14900Y6929D1*
D2*
Y7001D1*
D2*
X14923Y7048D1*
D2*
X14947Y7072D1*
D2*
X15019Y7097D1*
D2*
X15066D1*
D2*
X15138Y7072D1*
D2*
X15186Y7025D1*
D2*
X15210Y6953D1*
D2*
Y6881D1*
D2*
X15186Y6810D1*
D2*
X15162Y6786D1*
D2*
X15115Y6762D1*
M02*
