G04 DipTrace 2.2.0.9*
%INBottomSilk.gbr*%
%MOIN*%
%ADD10C,0.0098*%
%ADD47C,0.0077*%
%FSLAX44Y44*%
%SFA1B1*%
%OFA0B0*%
G04*
G70*
G90*
G75*
G01*
%LNBotSilk*%
%LPD*%
X32700Y19260D2*
D10*
X33212D1*
X12776Y7379D2*
X12264D1*
X40032Y13410D2*
X40544D1*
X24788Y7652D2*
X24276D1*
X9588Y7816D2*
Y7304D1*
X9306Y11004D2*
X12692D1*
X9306Y9980D2*
X12692D1*
Y11004D2*
Y9980D1*
X9306Y11004D2*
Y10689D1*
Y10295D2*
Y9980D1*
Y10689D2*
G02X9306Y10295I0J-197D01*
G01*
X17836Y18481D2*
Y11317D1*
X15316Y18481D2*
Y11317D1*
X17836D2*
X15316D1*
X17836Y18481D2*
X16891D1*
X16261D2*
X15316D1*
X16891D2*
G02X16261Y18481I-315J1D01*
G01*
X9187Y15099D2*
X13123D1*
X9187Y14075D2*
X13123D1*
Y15099D2*
Y14075D1*
X9187Y15099D2*
Y14784D1*
Y14390D2*
Y14075D1*
Y14784D2*
G02X9187Y14390I0J-197D01*
G01*
X22208Y15009D2*
X27246D1*
X22208Y12489D2*
X27246D1*
Y15009D2*
Y12489D1*
X22208Y15009D2*
Y14064D1*
Y13434D2*
Y12489D1*
Y14064D2*
G02X22208Y13434I-1J-315D01*
G01*
X30426Y15463D2*
Y11527D1*
X29402Y15463D2*
Y11527D1*
X30426D2*
X29402D1*
X30426Y15463D2*
X30111D1*
X29717D2*
X29402D1*
X30111D2*
G02X29717Y15463I-197J0D01*
G01*
X23968Y19155D2*
X27904D1*
X23968Y18131D2*
X27904D1*
Y19155D2*
Y18131D1*
X23968Y19155D2*
Y18840D1*
Y18446D2*
Y18131D1*
Y18840D2*
G02X23968Y18446I0J-197D01*
G01*
X33497Y13906D2*
Y17842D1*
X34521Y13906D2*
Y17842D1*
X33497D2*
X34521D1*
X33497Y13906D2*
X33812D1*
X34206D2*
X34521D1*
X33812D2*
G02X34206Y13906I197J0D01*
G01*
X32048Y20034D2*
D47*
X32000Y20058D1*
D2*
X31952Y20106D1*
D2*
X31928Y20154D1*
D2*
Y20249D1*
D2*
X31952Y20297D1*
D2*
X32000Y20345D1*
D2*
X32048Y20369D1*
D2*
X32120Y20393D1*
D2*
X32240D1*
D2*
X32311Y20369D1*
D2*
X32359Y20345D1*
D2*
X32407Y20297D1*
D2*
X32431Y20249D1*
D2*
Y20154D1*
D2*
X32407Y20106D1*
D2*
X32359Y20058D1*
D2*
X32311Y20034D1*
X31929Y19593D2*
Y19832D1*
D2*
X32144Y19856D1*
D2*
X32120Y19832D1*
D2*
X32096Y19760D1*
D2*
Y19689D1*
D2*
X32120Y19617D1*
D2*
X32168Y19569D1*
D2*
X32240Y19545D1*
D2*
X32287D1*
D2*
X32359Y19569D1*
D2*
X32407Y19617D1*
D2*
X32431Y19689D1*
D2*
Y19760D1*
D2*
X32407Y19832D1*
D2*
X32383Y19856D1*
D2*
X32335Y19880D1*
X11612Y6735D2*
X11564Y6759D1*
D2*
X11516Y6807D1*
D2*
X11492Y6854D1*
D2*
Y6950D1*
D2*
X11516Y6998D1*
D2*
X11564Y7046D1*
D2*
X11612Y7070D1*
D2*
X11684Y7094D1*
D2*
X11804D1*
D2*
X11875Y7070D1*
D2*
X11923Y7046D1*
D2*
X11971Y6998D1*
D2*
X11995Y6950D1*
D2*
Y6854D1*
D2*
X11971Y6807D1*
D2*
X11923Y6759D1*
D2*
X11875Y6735D1*
X11493Y6461D2*
X11517Y6533D1*
D2*
X11564Y6557D1*
D2*
X11612D1*
D2*
X11660Y6533D1*
D2*
X11684Y6485D1*
D2*
X11708Y6389D1*
D2*
X11732Y6318D1*
D2*
X11780Y6270D1*
D2*
X11827Y6246D1*
D2*
X11899D1*
D2*
X11947Y6270D1*
D2*
X11971Y6294D1*
D2*
X11995Y6366D1*
D2*
Y6461D1*
D2*
X11971Y6533D1*
D2*
X11947Y6557D1*
D2*
X11899Y6581D1*
D2*
X11827D1*
D2*
X11780Y6557D1*
D2*
X11732Y6509D1*
D2*
X11708Y6437D1*
D2*
X11684Y6342D1*
D2*
X11660Y6294D1*
D2*
X11612Y6270D1*
D2*
X11564D1*
D2*
X11517Y6294D1*
D2*
X11493Y6366D1*
D2*
Y6461D1*
X39380Y14321D2*
X39332Y14345D1*
D2*
X39284Y14393D1*
D2*
X39260Y14441D1*
D2*
Y14536D1*
D2*
X39284Y14585D1*
D2*
X39332Y14632D1*
D2*
X39380Y14656D1*
D2*
X39452Y14680D1*
D2*
X39572D1*
D2*
X39643Y14656D1*
D2*
X39691Y14632D1*
D2*
X39739Y14585D1*
D2*
X39763Y14536D1*
D2*
Y14441D1*
D2*
X39739Y14393D1*
D2*
X39691Y14345D1*
D2*
X39643Y14321D1*
X39357Y14167D2*
X39332Y14119D1*
D2*
X39261Y14047D1*
D2*
X39763D1*
X39261Y13749D2*
X39285Y13821D1*
D2*
X39357Y13869D1*
D2*
X39476Y13893D1*
D2*
X39548D1*
D2*
X39667Y13869D1*
D2*
X39739Y13821D1*
D2*
X39763Y13749D1*
D2*
Y13702D1*
D2*
X39739Y13630D1*
D2*
X39667Y13582D1*
D2*
X39548Y13558D1*
D2*
X39476D1*
D2*
X39357Y13582D1*
D2*
X39285Y13630D1*
D2*
X39261Y13702D1*
D2*
Y13749D1*
X39357Y13582D2*
X39667Y13869D1*
X23624Y7038D2*
X23576Y7062D1*
D2*
X23528Y7110D1*
D2*
X23504Y7157D1*
D2*
Y7253D1*
D2*
X23528Y7301D1*
D2*
X23576Y7349D1*
D2*
X23624Y7373D1*
D2*
X23696Y7397D1*
D2*
X23816D1*
D2*
X23887Y7373D1*
D2*
X23935Y7349D1*
D2*
X23983Y7301D1*
D2*
X24007Y7253D1*
D2*
Y7157D1*
D2*
X23983Y7110D1*
D2*
X23935Y7062D1*
D2*
X23887Y7038D1*
X23601Y6884D2*
X23576Y6836D1*
D2*
X23505Y6764D1*
D2*
X24007D1*
X23601Y6609D2*
X23576Y6561D1*
D2*
X23505Y6489D1*
D2*
X24007D1*
X10499Y8468D2*
X10523Y8516D1*
D2*
X10571Y8564D1*
D2*
X10619Y8588D1*
D2*
X10714D1*
D2*
X10763Y8564D1*
D2*
X10810Y8516D1*
D2*
X10834Y8468D1*
D2*
X10858Y8396D1*
D2*
Y8276D1*
D2*
X10834Y8205D1*
D2*
X10810Y8157D1*
D2*
X10763Y8109D1*
D2*
X10714Y8085D1*
D2*
X10619D1*
D2*
X10571Y8109D1*
D2*
X10523Y8157D1*
D2*
X10499Y8205D1*
X10345Y8491D2*
X10297Y8516D1*
D2*
X10225Y8587D1*
D2*
Y8085D1*
X10023Y8587D2*
X9760D1*
D2*
X9903Y8396D1*
D2*
X9831D1*
D2*
X9784Y8372D1*
D2*
X9760Y8348D1*
D2*
X9736Y8276D1*
D2*
Y8229D1*
D2*
X9760Y8157D1*
D2*
X9808Y8109D1*
D2*
X9880Y8085D1*
D2*
X9951D1*
D2*
X10023Y8109D1*
D2*
X10046Y8133D1*
D2*
X10071Y8181D1*
X19922Y14269D2*
Y14054D1*
D2*
X19897Y13982D1*
D2*
X19874Y13958D1*
D2*
X19826Y13934D1*
D2*
X19778D1*
D2*
X19731Y13958D1*
D2*
X19706Y13982D1*
D2*
X19682Y14054D1*
D2*
Y14269D1*
D2*
X20185D1*
X19922Y14101D2*
X20185Y13934D1*
X19802Y13755D2*
X19779D1*
D2*
X19731Y13731D1*
D2*
X19707Y13708D1*
D2*
X19683Y13660D1*
D2*
Y13564D1*
D2*
X19707Y13516D1*
D2*
X19731Y13493D1*
D2*
X19779Y13468D1*
D2*
X19826D1*
D2*
X19874Y13493D1*
D2*
X19946Y13540D1*
D2*
X20185Y13779D1*
D2*
Y13445D1*
X19683Y13003D2*
Y13242D1*
D2*
X19898Y13266D1*
D2*
X19874Y13242D1*
D2*
X19850Y13170D1*
D2*
Y13099D1*
D2*
X19874Y13027D1*
D2*
X19922Y12979D1*
D2*
X19994Y12955D1*
D2*
X20041D1*
D2*
X20113Y12979D1*
D2*
X20161Y13027D1*
D2*
X20185Y13099D1*
D2*
Y13170D1*
D2*
X20161Y13242D1*
D2*
X20137Y13266D1*
D2*
X20089Y13290D1*
X19922Y11800D2*
Y11585D1*
D2*
X19897Y11513D1*
D2*
X19874Y11488D1*
D2*
X19826Y11465D1*
D2*
X19778D1*
D2*
X19731Y11488D1*
D2*
X19706Y11513D1*
D2*
X19682Y11585D1*
D2*
Y11800D1*
D2*
X20185D1*
X19922Y11632D2*
X20185Y11465D1*
X19802Y11286D2*
X19779D1*
D2*
X19731Y11262D1*
D2*
X19707Y11238D1*
D2*
X19683Y11190D1*
D2*
Y11095D1*
D2*
X19707Y11047D1*
D2*
X19731Y11023D1*
D2*
X19779Y10999D1*
D2*
X19826D1*
D2*
X19874Y11023D1*
D2*
X19946Y11071D1*
D2*
X20185Y11310D1*
D2*
Y10975D1*
X19754Y10534D2*
X19707Y10558D1*
D2*
X19683Y10630D1*
D2*
Y10677D1*
D2*
X19707Y10749D1*
D2*
X19779Y10797D1*
D2*
X19898Y10821D1*
D2*
X20017D1*
D2*
X20113Y10797D1*
D2*
X20161Y10749D1*
D2*
X20185Y10677D1*
D2*
Y10654D1*
D2*
X20161Y10582D1*
D2*
X20113Y10534D1*
D2*
X20041Y10510D1*
D2*
X20017D1*
D2*
X19946Y10534D1*
D2*
X19898Y10582D1*
D2*
X19874Y10654D1*
D2*
Y10677D1*
D2*
X19898Y10749D1*
D2*
X19946Y10797D1*
D2*
X20017Y10821D1*
X8846Y19105D2*
Y18890D1*
D2*
X8821Y18818D1*
D2*
X8798Y18794D1*
D2*
X8750Y18770D1*
D2*
X8702D1*
D2*
X8655Y18794D1*
D2*
X8630Y18818D1*
D2*
X8606Y18890D1*
D2*
Y19105D1*
D2*
X9109D1*
X8846Y18937D2*
X9109Y18770D1*
X8726Y18591D2*
X8703D1*
D2*
X8655Y18567D1*
D2*
X8631Y18544D1*
D2*
X8607Y18496D1*
D2*
Y18400D1*
D2*
X8631Y18352D1*
D2*
X8655Y18329D1*
D2*
X8703Y18304D1*
D2*
X8750D1*
D2*
X8798Y18329D1*
D2*
X8870Y18376D1*
D2*
X9109Y18615D1*
D2*
Y18281D1*
Y18031D2*
X8607Y17791D1*
D2*
Y18126D1*
X23083Y8940D2*
X22868D1*
D2*
X22796Y8965D1*
D2*
X22771Y8988D1*
D2*
X22748Y9036D1*
D2*
Y9084D1*
D2*
X22771Y9131D1*
D2*
X22796Y9156D1*
D2*
X22868Y9180D1*
D2*
X23083D1*
D2*
Y8677D1*
X22915Y8940D2*
X22748Y8677D1*
X22569Y9060D2*
Y9083D1*
D2*
X22545Y9131D1*
D2*
X22521Y9155D1*
D2*
X22473Y9179D1*
D2*
X22378D1*
D2*
X22330Y9155D1*
D2*
X22306Y9131D1*
D2*
X22282Y9083D1*
D2*
Y9036D1*
D2*
X22306Y8988D1*
D2*
X22354Y8916D1*
D2*
X22593Y8677D1*
D2*
X22258D1*
X21984Y9179D2*
X22056Y9155D1*
D2*
X22080Y9108D1*
D2*
Y9060D1*
D2*
X22056Y9012D1*
D2*
X22008Y8988D1*
D2*
X21913Y8964D1*
D2*
X21841Y8940D1*
D2*
X21793Y8892D1*
D2*
X21769Y8845D1*
D2*
Y8773D1*
D2*
X21793Y8725D1*
D2*
X21817Y8701D1*
D2*
X21889Y8677D1*
D2*
X21984D1*
D2*
X22056Y8701D1*
D2*
X22080Y8725D1*
D2*
X22104Y8773D1*
D2*
Y8845D1*
D2*
X22080Y8892D1*
D2*
X22032Y8940D1*
D2*
X21961Y8964D1*
D2*
X21865Y8988D1*
D2*
X21817Y9012D1*
D2*
X21793Y9060D1*
D2*
Y9108D1*
D2*
X21817Y9155D1*
D2*
X21889Y9179D1*
D2*
X21984D1*
X11304Y12681D2*
Y12322D1*
D2*
X11280Y12250D1*
D2*
X11232Y12203D1*
D2*
X11160Y12179D1*
D2*
X11112D1*
D2*
X11041Y12203D1*
D2*
X10992Y12250D1*
D2*
X10969Y12322D1*
D2*
Y12681D1*
X10814Y12585D2*
X10766Y12609D1*
D2*
X10694Y12680D1*
D2*
Y12179D1*
X16988Y19214D2*
Y18855D1*
D2*
X16964Y18783D1*
D2*
X16916Y18736D1*
D2*
X16844Y18711D1*
D2*
X16797D1*
D2*
X16725Y18736D1*
D2*
X16677Y18783D1*
D2*
X16653Y18855D1*
D2*
Y19214D1*
X16403Y18711D2*
X16164Y19213D1*
D2*
X16499D1*
X11567Y16776D2*
Y16417D1*
D2*
X11543Y16345D1*
D2*
X11495Y16298D1*
D2*
X11423Y16274D1*
D2*
X11376D1*
D2*
X11304Y16298D1*
D2*
X11256Y16345D1*
D2*
X11232Y16417D1*
D2*
Y16776D1*
X10958Y16775D2*
X11029Y16752D1*
D2*
X11054Y16704D1*
D2*
Y16656D1*
D2*
X11029Y16608D1*
D2*
X10982Y16584D1*
D2*
X10886Y16560D1*
D2*
X10814Y16537D1*
D2*
X10767Y16489D1*
D2*
X10743Y16441D1*
D2*
Y16369D1*
D2*
X10767Y16322D1*
D2*
X10791Y16297D1*
D2*
X10863Y16274D1*
D2*
X10958D1*
D2*
X11029Y16297D1*
D2*
X11054Y16322D1*
D2*
X11078Y16369D1*
D2*
Y16441D1*
D2*
X11054Y16489D1*
D2*
X11006Y16537D1*
D2*
X10934Y16560D1*
D2*
X10839Y16584D1*
D2*
X10791Y16608D1*
D2*
X10767Y16656D1*
D2*
Y16704D1*
D2*
X10791Y16752D1*
D2*
X10863Y16775D1*
D2*
X10958D1*
X25127Y16705D2*
Y16347D1*
D2*
X25103Y16275D1*
D2*
X25055Y16227D1*
D2*
X24984Y16203D1*
D2*
X24936D1*
D2*
X24864Y16227D1*
D2*
X24816Y16275D1*
D2*
X24792Y16347D1*
D2*
Y16705D1*
X24327Y16538D2*
X24351Y16466D1*
D2*
X24399Y16418D1*
D2*
X24470Y16394D1*
D2*
X24494D1*
D2*
X24566Y16418D1*
D2*
X24614Y16466D1*
D2*
X24638Y16538D1*
D2*
Y16562D1*
D2*
X24614Y16633D1*
D2*
X24566Y16681D1*
D2*
X24494Y16705D1*
D2*
X24470D1*
D2*
X24399Y16681D1*
D2*
X24351Y16633D1*
D2*
X24327Y16538D1*
D2*
Y16418D1*
D2*
X24351Y16299D1*
D2*
X24399Y16227D1*
D2*
X24470Y16203D1*
D2*
X24518D1*
D2*
X24590Y16227D1*
D2*
X24614Y16275D1*
X30463Y16196D2*
Y15837D1*
D2*
X30440Y15765D1*
D2*
X30391Y15717D1*
D2*
X30320Y15693D1*
D2*
X30272D1*
D2*
X30200Y15717D1*
D2*
X30152Y15765D1*
D2*
X30128Y15837D1*
D2*
Y16196D1*
X29974Y16099D2*
X29926Y16124D1*
D2*
X29854Y16195D1*
D2*
Y15693D1*
X29556Y16195D2*
X29628Y16171D1*
D2*
X29676Y16099D1*
D2*
X29700Y15980D1*
D2*
Y15908D1*
D2*
X29676Y15789D1*
D2*
X29628Y15717D1*
D2*
X29556Y15693D1*
D2*
X29508D1*
D2*
X29437Y15717D1*
D2*
X29389Y15789D1*
D2*
X29365Y15908D1*
D2*
Y15980D1*
D2*
X29389Y16099D1*
D2*
X29437Y16171D1*
D2*
X29508Y16195D1*
D2*
X29556D1*
X29389Y16099D2*
X29676Y15789D1*
X26378Y20832D2*
Y20473D1*
D2*
X26354Y20401D1*
D2*
X26306Y20354D1*
D2*
X26234Y20330D1*
D2*
X26187D1*
D2*
X26115Y20354D1*
D2*
X26067Y20401D1*
D2*
X26043Y20473D1*
D2*
Y20832D1*
X25888Y20736D2*
X25840Y20760D1*
D2*
X25769Y20831D1*
D2*
Y20330D1*
X25614Y20736D2*
X25566Y20760D1*
D2*
X25494Y20831D1*
D2*
Y20330D1*
X34558Y18575D2*
Y18216D1*
D2*
X34535Y18144D1*
D2*
X34486Y18096D1*
D2*
X34415Y18072D1*
D2*
X34367D1*
D2*
X34295Y18096D1*
D2*
X34247Y18144D1*
D2*
X34223Y18216D1*
D2*
Y18575D1*
X34069Y18478D2*
X34021Y18503D1*
D2*
X33949Y18574D1*
D2*
Y18072D1*
X33770Y18455D2*
Y18478D1*
D2*
X33747Y18526D1*
D2*
X33723Y18550D1*
D2*
X33675Y18574D1*
D2*
X33579D1*
D2*
X33532Y18550D1*
D2*
X33508Y18526D1*
D2*
X33483Y18478D1*
D2*
Y18431D1*
D2*
X33508Y18383D1*
D2*
X33555Y18311D1*
D2*
X33795Y18072D1*
D2*
X33460D1*
M02*
