G04 DipTrace 2.2.0.9*
%INTop.gbr*%
%MOIN*%
%ADD13C,0.01*%
%ADD15R,0.0591X0.0512*%
%ADD16R,0.0512X0.0591*%
%ADD17C,0.06*%
%ADD19R,0.0413X0.0256*%
%ADD20R,0.0236X0.0787*%
%ADD21R,0.0709X0.0709*%
%ADD22C,0.0709*%
%ADD23R,0.0787X0.0236*%
%ADD24C,0.04*%
%FSLAX44Y44*%
%SFA1B1*%
%OFA0B0*%
G04*
G70*
G90*
G75*
G01*
%LNTop*%
%LPD*%
X29940Y8192D2*
D13*
Y7573D1*
X30573Y6940D1*
X28237Y8948D2*
X29940D1*
X30850Y10781D2*
Y8566D1*
X40940Y17940D2*
X39684Y19196D1*
X38440D1*
X23727Y18599D2*
X23477Y18849D1*
X20973D1*
X6940Y7688D2*
X7988D1*
X8188Y7888D1*
Y9440D1*
X24860Y11935D2*
Y12493D1*
X24660Y12693D1*
X23128D1*
X8188Y14440D2*
Y14885D1*
X8388Y15085D1*
X9238D1*
X9473Y14850D1*
Y14218D1*
X31671Y15256D2*
X33990D1*
X17205Y18107D2*
Y18845D1*
X16869D1*
X16669Y18645D1*
Y18495D1*
X27395Y11529D2*
X30850D1*
X8188Y16940D2*
Y16495D1*
X9189D1*
X9238Y16544D1*
Y16749D1*
X9438Y16949D1*
X9946D1*
X12130Y19457D2*
Y20025D1*
X9038Y17705D2*
Y18638D1*
X9238Y18838D1*
X9651D1*
X30691Y16440D2*
X29975Y17156D1*
X29339D1*
X39235Y12114D2*
Y13043D1*
X39035Y13243D1*
X34576D1*
X34376Y13443D1*
X20220Y12572D2*
X19470D1*
X19270Y12772D1*
Y14192D1*
X19070Y14392D1*
X17445D1*
X17039Y13986D1*
X16147D1*
X9238Y16544D2*
Y15085D1*
X19270Y14192D2*
X19470Y14392D1*
X20710D1*
Y13985D1*
X40940Y15440D2*
Y14748D1*
X39235Y13043D1*
X10640Y8155D2*
Y8688D1*
X11440D1*
X38440Y19940D2*
Y21440D1*
Y19196D2*
Y19940D1*
X20973Y17056D2*
X21173Y16856D1*
X22408D1*
Y17405D1*
X20973Y18849D2*
Y17056D1*
X8188Y11940D2*
Y12390D1*
X9297D1*
X9438Y12249D1*
X8188Y10173D2*
Y11940D1*
Y9440D2*
Y10173D1*
X13667Y13261D2*
X13257D1*
X13057Y13461D1*
Y15825D1*
X16147Y13986D2*
X13867D1*
X13667Y13786D1*
Y13261D1*
X17039Y13986D2*
X17239Y13786D1*
Y11529D1*
X22527Y12572D2*
X20220D1*
X23128Y12693D2*
Y12135D1*
X22527D1*
Y12572D1*
X9473Y14218D2*
Y13399D1*
X9673Y13199D1*
X11801D1*
Y13690D1*
X15557Y15825D2*
Y15092D1*
X14557D1*
Y15825D1*
X15057Y17951D2*
Y17269D1*
X15257Y17069D1*
Y16669D1*
X15557Y16369D1*
Y15825D1*
X16669Y18495D2*
X15057D1*
Y17951D1*
X34376Y13443D2*
Y12598D1*
X31871Y14745D2*
X33089D1*
X33289Y14545D1*
Y13743D1*
X33489Y13543D1*
X34276D1*
X34376Y13443D1*
X31334Y13261D2*
Y14208D1*
X31871Y14745D1*
X30850Y11529D2*
X31334D1*
Y13261D1*
X9946Y16949D2*
Y17505D1*
X9503D1*
X12130Y20025D2*
X13094D1*
X13266Y19852D1*
X14019D1*
X29339Y17156D2*
X28357D1*
X28157Y17356D1*
Y19435D1*
X28357Y19635D1*
X29290D1*
X14767Y19852D2*
Y20573D1*
X14567Y20773D1*
X12130D1*
X20705Y15981D2*
Y16675D1*
X19705D1*
X28142Y14295D2*
Y15595D1*
X19620Y13899D2*
Y13437D1*
X19820Y13237D1*
X20710D1*
X10399Y18838D2*
Y16201D1*
X9946D1*
X18205Y18107D2*
Y17375D1*
X17705D1*
X17019D1*
X12949Y11296D2*
X10899D1*
X10699Y11496D1*
X11299D1*
X11499Y11696D1*
Y12617D1*
X13725Y17149D2*
X14235D1*
X14415Y16969D1*
X14557D1*
X15057Y16469D1*
Y15825D1*
X19705Y18107D2*
Y18651D1*
X18705D1*
X18205D1*
Y18107D1*
X20205Y17025D2*
Y18107D1*
X37440Y21440D2*
Y20637D1*
X37692Y20385D1*
Y19940D1*
X19705Y15981D2*
Y16675D1*
X27595Y13072D2*
X26781D1*
X26581Y13272D1*
Y13656D1*
X27213D1*
X23440Y5940D2*
X20940D1*
X35440D2*
X37940D1*
X33073D2*
X30573D1*
X29290Y21440D2*
Y20383D1*
X5940Y9864D2*
Y8294D1*
X6140Y8094D1*
X7535D1*
X14557Y16969D2*
Y17951D1*
X13557D2*
Y17399D1*
X13725D1*
Y17149D1*
X11685Y18995D2*
X12168D1*
X12690Y19517D1*
X13357D1*
X13557Y19317D1*
Y17951D1*
X12130Y20773D2*
X11685D1*
Y18995D1*
X17705Y17375D2*
Y18107D1*
X18705Y18651D2*
Y18107D1*
X19705Y16675D2*
Y18107D1*
X32940Y21440D2*
X30135D1*
X29935Y21240D1*
Y17756D1*
X29735Y17556D1*
X28707D1*
X28507Y17756D1*
Y19142D1*
X32071Y17542D2*
X32940Y18411D1*
Y21440D1*
X29339Y15656D2*
X31871D1*
X32071Y15856D1*
Y17542D1*
X28142Y15595D2*
X28492D1*
X28553Y15656D1*
X29339D1*
X26031Y14774D2*
X25992Y14735D1*
X25408D1*
Y15279D1*
X23128Y13441D2*
X25831D1*
X26031Y13641D1*
Y14774D1*
X20710Y13237D2*
X22423D1*
X22627Y13441D1*
X23128D1*
X11053Y13690D2*
X11355D1*
Y14285D1*
X9946Y16201D2*
Y13890D1*
X10146Y13690D1*
X11053D1*
X20205Y18107D2*
Y19167D1*
X20237Y19199D1*
X23877D1*
X24077Y18999D1*
Y18449D1*
X23727Y18099D1*
X19705Y16675D2*
X19205D1*
Y15981D1*
X18440Y5940D2*
X15940D1*
X20940D2*
X18440D1*
X12057Y17221D2*
Y17951D1*
X9946Y11296D2*
X10499D1*
X10699Y11496D1*
X8538Y11346D2*
X8588Y11296D1*
X9946D1*
X32440Y6940D2*
Y8192D1*
X32644Y10781D2*
Y10277D1*
X32440Y10073D1*
Y8940D1*
X32082Y13261D2*
Y8566D1*
X33346D1*
X32644Y12745D2*
X32394Y12495D1*
Y11529D1*
X32644D1*
X33439Y12245D2*
Y13193D1*
X33821Y11583D2*
X35470D1*
X35670Y11383D1*
Y10804D1*
X34940Y8192D2*
Y7440D1*
X35440Y6940D1*
X34922Y10804D2*
Y8940D1*
X34940D1*
X35124Y12598D2*
X36002D1*
X36202Y12398D1*
Y8566D1*
X35846D1*
X37440Y8192D2*
Y7440D1*
X37940Y6940D1*
X37441Y10781D2*
Y8940D1*
X39235Y11366D2*
X38546D1*
X38346Y11166D1*
Y8566D1*
X36846Y11529D2*
X37441D1*
X37166Y4590D2*
X14144D1*
X13944Y4790D1*
Y11935D1*
X14144Y12135D1*
X14969D1*
X15419Y12585D1*
X37166Y15974D2*
X33640D1*
X28237Y9696D2*
X28857D1*
Y10216D1*
X30097D1*
X30297Y10016D1*
Y7964D1*
X30497Y7764D1*
X32071D1*
X25608Y21689D2*
Y18299D1*
X22327Y21323D2*
X22677Y21673D1*
X24133D1*
X24227Y21579D1*
X7668Y17927D2*
Y21123D1*
X7868Y21323D1*
X10305D1*
X6440Y16940D2*
X6890D1*
X7440D1*
X15440Y8192D2*
Y7440D1*
X15940Y6940D1*
X15445Y10781D2*
Y8940D1*
X8018Y20157D2*
X10655D1*
X6440Y9440D2*
X6890D1*
X7440D1*
X10655Y20157D2*
Y21729D1*
X10855Y21929D1*
X25058D1*
X25258Y21729D1*
Y20400D1*
X23727Y21323D2*
X23027D1*
X6440Y11940D2*
X6890D1*
X7440D1*
X29735Y22129D2*
Y18628D1*
X29132Y18024D1*
X6440Y14440D2*
X6890D1*
X7440D1*
X17239Y10781D2*
Y8766D1*
X17039Y8566D1*
X16346D1*
X24882Y5440D2*
Y9347D1*
X15445Y11529D2*
X16040D1*
Y9699D1*
X20947Y10225D2*
Y11049D1*
X21147Y11249D1*
X23362D1*
Y10765D1*
X23512Y10615D1*
X21297Y9694D2*
Y10604D1*
X21497Y10804D1*
X22208D1*
X17940Y8192D2*
Y7440D1*
X18440Y6940D1*
X17941Y13238D2*
Y8940D1*
X18846Y8566D2*
X17677D1*
X17201Y8090D1*
X15997D1*
X15797Y8290D1*
Y8844D1*
X16390Y9438D1*
Y13238D1*
X16147D1*
X19470Y11529D2*
X20437D1*
X23483D1*
X23827Y11185D1*
X24327D2*
X23577Y11935D1*
X20477D1*
X20263Y12149D1*
X19120D1*
X18386Y12883D1*
Y13986D1*
X17941D1*
X20440Y8192D2*
Y7440D1*
X20940Y6940D1*
X20437Y10781D2*
Y8940D1*
X25608Y11935D2*
Y10877D1*
X23297Y8566D1*
X21346D1*
X22940Y8192D2*
Y7440D1*
X23440Y6940D1*
X22956Y10804D2*
Y8940D1*
X22940D1*
X14294Y6417D2*
X24002D1*
X24202Y6617D1*
Y8566D1*
X23846D1*
X13594Y6417D2*
Y12135D1*
X13794Y12335D1*
X14215D1*
X14415Y12535D1*
Y13261D1*
X12940Y7940D2*
X11885D1*
X11440D1*
Y6940D1*
X10945Y10548D2*
X12295D1*
Y8888D1*
X12495Y8688D1*
X12940D1*
X12295Y10548D2*
X12949D1*
X10999Y12249D2*
Y12799D1*
X5190D1*
X4990Y12999D1*
Y18644D1*
X6968Y20622D1*
Y21929D1*
X7168Y22129D1*
X27757D1*
X27957Y21929D1*
Y16856D1*
X28157Y16656D1*
X29339D1*
X27213D2*
X21173D1*
X20973Y16456D1*
Y15437D1*
X20773Y15237D1*
X17705D1*
Y15981D1*
X6940Y6940D2*
X8940D1*
X9440Y7440D1*
Y7940D1*
X8538Y8688D2*
X9440D1*
X10499Y12449D2*
X10349Y12599D1*
X4990D1*
X4790Y12399D1*
Y11868D1*
X6440Y10218D1*
X9440Y8688D2*
X9946D1*
Y10548D1*
X36440Y21440D2*
X33940D1*
X26714Y7238D2*
Y11679D1*
X26914Y11879D1*
X28107D1*
X28307Y12079D1*
Y13313D1*
X27757Y13863D1*
Y17749D1*
X27557Y17949D1*
X25408D1*
Y17405D1*
Y16856D1*
X23408D1*
Y17405D1*
X32071Y6390D2*
X26564D1*
X26364Y6590D1*
Y12572D1*
X11853Y12249D2*
Y12799D1*
X11653Y12999D1*
X6090D1*
X5890Y13199D1*
Y18211D1*
X7318Y19639D1*
X24245Y14542D2*
X24108D1*
X23908Y14742D1*
Y15279D1*
X10405Y14285D2*
X11005Y14885D1*
Y20979D1*
X11205Y21179D1*
X13393D1*
X13599Y20973D1*
X24708D1*
X24908Y20773D1*
Y17405D1*
X13189Y19167D2*
Y18695D1*
X12989Y18495D1*
X11705D1*
Y14788D1*
X12207Y14285D1*
X12989Y18495D2*
Y17951D1*
X13057D1*
X18806Y19167D2*
Y19517D1*
X24208D1*
X24408Y19317D1*
Y17405D1*
X12917Y9244D2*
X13394Y9721D1*
Y11702D1*
X12557Y12539D1*
Y15825D1*
X15769Y14742D2*
X14257D1*
X14057Y14942D1*
Y15825D1*
X14294Y8640D2*
Y11735D1*
X14494Y11935D1*
X15619D1*
X15769Y12085D1*
X21873Y17949D2*
X22908D1*
Y17405D1*
X20797Y9602D2*
Y7740D1*
X20997Y7540D1*
X22052D1*
X15975Y17795D2*
X17001Y16769D1*
X18005D1*
X18205Y16569D1*
Y15981D1*
X11355Y14785D2*
Y18417D1*
X17205Y15981D2*
Y15437D1*
X16390D1*
X12040Y8290D2*
Y9582D1*
X11499Y10123D1*
X14294Y5090D2*
X25814D1*
X26014Y5290D1*
Y12739D1*
X26381Y13106D1*
Y15456D1*
X26581Y15656D1*
X27213D1*
X13244Y7315D2*
Y5090D1*
X16390Y15437D2*
Y16152D1*
X15557Y16985D1*
Y17951D1*
X19120Y17025D2*
X18705Y16610D1*
Y15981D1*
X22977Y13997D2*
X21750D1*
X21155Y14592D1*
X17105D1*
X16905Y14392D1*
X13757D1*
X13557Y14592D1*
Y15825D1*
X12207Y16519D2*
X12057Y16369D1*
Y15825D1*
X13573Y16519D2*
X12757D1*
X12557Y16719D1*
Y17951D1*
X24186Y20400D2*
X18683D1*
X17328Y19045D1*
X14257D1*
X14057Y18845D1*
Y17951D1*
X21323Y15142D2*
X21873Y14592D1*
X22408D1*
Y15279D1*
X21673Y15823D2*
X22908D1*
Y15279D1*
X15790Y7740D2*
X17490D1*
X22908Y15279D2*
Y14547D1*
X23108Y14347D1*
X23496D1*
X23651Y14192D1*
X24708D1*
X24908Y14392D1*
Y15279D1*
X26519Y16273D2*
X24608D1*
X24408Y16073D1*
Y15279D1*
X28492Y16273D2*
X28609Y16156D1*
X29339D1*
X31041Y20800D2*
Y17356D1*
X33640Y14124D2*
X36666D1*
X33640Y17474D2*
X37316D1*
X37516Y17274D1*
Y15824D1*
X37316Y15624D1*
X35766D1*
X31741Y20450D2*
Y18042D1*
X33089Y9737D2*
Y13656D1*
X32889Y13856D1*
X31684D1*
D24*
X8188Y10173D3*
X33990Y15256D3*
X23727Y18599D3*
X9038Y17705D3*
X20973Y17056D3*
X34376Y13443D3*
X9438Y12249D3*
X38440Y19196D3*
X20220Y12572D3*
X31871Y14745D3*
X10640Y8155D3*
X30691Y16440D3*
X27395Y11529D3*
X20973Y18849D3*
X9473Y14218D3*
X12130Y19457D3*
X9503Y17505D3*
X31671Y15256D3*
X16669Y18495D3*
X22527Y12572D3*
X17019Y17375D3*
X23727Y18099D3*
X28507Y19142D3*
X27595Y13072D3*
X29290Y21440D3*
X12055Y17219D3*
X7535Y8094D3*
X5940Y9864D3*
X20205Y17025D3*
X8538Y11346D3*
X11355Y14285D3*
X19620Y13899D3*
X32071Y17542D3*
X11499Y12617D3*
X13725Y17149D3*
X26031Y14774D3*
X11685Y18995D3*
X28142Y14295D3*
X19705Y16675D3*
X28142Y15595D3*
X32440Y6940D3*
X32644Y12745D3*
X33439Y13193D3*
Y12245D3*
X33821Y11583D3*
X36846Y11529D3*
X15419Y12585D3*
X37166Y4590D3*
X33640Y15974D3*
X37166D3*
X32071Y7764D3*
X28857Y10216D3*
X25608Y18299D3*
Y21689D3*
X24227Y21579D3*
X22327Y21323D3*
X10305D3*
X7668Y17927D3*
X25258Y20400D3*
X8018Y20157D3*
X10655D3*
X23027Y21323D3*
X23727D3*
X29132Y18024D3*
X29735Y22129D3*
X24882Y9347D3*
Y5440D3*
X16040Y9699D3*
Y11529D3*
X23512Y10615D3*
X20947Y10225D3*
X21297Y9694D3*
X23827Y11185D3*
X19470Y11529D3*
X24327Y11185D3*
X19120Y12149D3*
X14294Y6417D3*
X13594D3*
X10945Y10548D3*
X10999Y12249D3*
X8538Y8688D3*
X6440Y10218D3*
X10499Y12449D3*
X26714Y7238D3*
X24245Y14542D3*
X26364Y12572D3*
X32071Y6390D3*
X7318Y19639D3*
X11853Y12249D3*
X10405Y14285D3*
X13189Y19167D3*
X18806D3*
X12207Y14285D3*
X12917Y9244D3*
X15769Y14742D3*
Y12085D3*
X14294Y8640D3*
X21873Y17949D3*
X22052Y7540D3*
X20797Y9602D3*
X15975Y17795D3*
X11355Y18417D3*
Y14785D3*
X11499Y10123D3*
X12040Y8290D3*
X14294Y5090D3*
X13244D3*
Y7315D3*
X16390Y15437D3*
X19120Y17025D3*
X22977Y13997D3*
X12207Y16519D3*
X13573D3*
X24186Y20400D3*
X21323Y15142D3*
X17490Y7740D3*
X15790D3*
X21673Y15823D3*
X26519Y16273D3*
X28492D3*
X31041Y17356D3*
Y20800D3*
X36666Y14124D3*
X33640D3*
X35766Y15624D3*
X33640Y17474D3*
X31741Y18042D3*
Y20450D3*
X31684Y13856D3*
X33089Y9737D3*
D15*
X9946Y16949D3*
Y16201D3*
X12949Y10548D3*
Y11296D3*
X9946Y10548D3*
Y11296D3*
D16*
X38440Y19940D3*
X37692D3*
X9651Y18838D3*
X10399D3*
D15*
X20710Y13985D3*
Y13237D3*
X23128Y12693D3*
Y13441D3*
X12130Y20025D3*
Y20773D3*
D16*
X11801Y13690D3*
X11053D3*
D15*
X29290Y19635D3*
Y20383D3*
D16*
X14019Y19852D3*
X14767D3*
D17*
X32940Y21440D3*
X33940D3*
X8940Y5940D3*
Y6940D3*
X37940D3*
Y5940D3*
X35440Y6940D3*
Y5940D3*
X33073Y6940D3*
Y5940D3*
X30573Y6940D3*
Y5940D3*
X40940Y17940D3*
X39940D3*
X40940Y15440D3*
X39940D3*
D19*
X29940Y8940D3*
Y8192D3*
X30846Y8566D3*
X32440Y8940D3*
Y8192D3*
X33346Y8566D3*
X34940Y8940D3*
Y8192D3*
X35846Y8566D3*
X37440Y8940D3*
Y8192D3*
X38346Y8566D3*
X15440Y8940D3*
Y8192D3*
X16346Y8566D3*
X17940Y8940D3*
Y8192D3*
X18846Y8566D3*
X20440Y8940D3*
Y8192D3*
X21346Y8566D3*
X22940Y8940D3*
Y8192D3*
X23846Y8566D3*
D15*
X28237Y9696D3*
Y8948D3*
X30850Y10781D3*
Y11529D3*
X32644D3*
Y10781D3*
D16*
X32082Y13261D3*
X31334D3*
X35670Y10804D3*
X34922D3*
X35124Y12598D3*
X34376D3*
D15*
X37441Y11529D3*
Y10781D3*
X39235Y11366D3*
Y12114D3*
D16*
X7440Y16940D3*
X8188D3*
X7440Y9440D3*
X8188D3*
X7440Y11940D3*
X8188D3*
X7440Y14440D3*
X8188D3*
D15*
X15445Y11529D3*
Y10781D3*
X17239D3*
Y11529D3*
X17941Y13986D3*
Y13238D3*
X16147D3*
Y13986D3*
X20437Y11529D3*
Y10781D3*
D16*
X25608Y11935D3*
X24860D3*
X22208Y10804D3*
X22956D3*
X14415Y13261D3*
X13667D3*
D15*
X11440Y7940D3*
Y8688D3*
X12940Y7940D3*
Y8688D3*
X6940Y6940D3*
Y7688D3*
X9440Y7940D3*
Y8688D3*
D17*
X11440Y5940D3*
Y6940D3*
X6440Y9440D3*
X5440D3*
X6440Y11940D3*
X5440D3*
X6440Y14440D3*
X5440D3*
X6440Y16940D3*
X5440D3*
D21*
X36440Y21440D3*
D22*
X38440D3*
X37440D3*
D20*
X15557Y17951D3*
X15057D3*
X14557D3*
X14057D3*
X13557D3*
X13057D3*
X12557D3*
X12057D3*
Y15825D3*
X12557D3*
X13057D3*
X13557D3*
X14057D3*
X14557D3*
X15057D3*
X15557D3*
X17205Y15981D3*
X17705D3*
X18205D3*
X18705D3*
X19205D3*
X19705D3*
X20205D3*
X20705D3*
Y18107D3*
X20205D3*
X19705D3*
X19205D3*
X18705D3*
X18205D3*
X17705D3*
X17205D3*
X22408Y15279D3*
X22908D3*
X23408D3*
X23908D3*
X24408D3*
X24908D3*
X25408D3*
Y17405D3*
X24908D3*
X24408D3*
X23908D3*
X23408D3*
X22908D3*
X22408D3*
D23*
X27213Y17156D3*
Y16656D3*
Y16156D3*
Y15656D3*
Y15156D3*
Y14656D3*
Y14156D3*
Y13656D3*
X29339D3*
Y14156D3*
Y14656D3*
Y15156D3*
Y15656D3*
Y16156D3*
Y16656D3*
Y17156D3*
D17*
X23440Y6940D3*
Y5940D3*
X20940Y6940D3*
Y5940D3*
X18440Y6940D3*
Y5940D3*
X15940Y6940D3*
Y5940D3*
M02*
