M48
INCH
T01C0.019
T02C0.04
T03C0.0472
T04C0.1378
%
T01
X+008188Y+010173
X+008538Y+011346
X+009438Y+012249
X+010499Y+012449
X+010999Y+012249
X+011499Y+012617
X+011853Y+012249
X+010945Y+010548
X+011499Y+010123
X+012917Y+009244
X+012040Y+008290
X+010640Y+008155
X+008538Y+008688
X+007535Y+008094
X+005940Y+009864
X+006440Y+010218
X+009473Y+014218
X+010405Y+014285
X+011355Y+014285
X+011355Y+014785
X+012207Y+014285
X+012207Y+016519
X+012055Y+017219
X+011355Y+018417
X+011685Y+018995
X+012130Y+019457
X+013189Y+019167
X+013725Y+017149
X+013573Y+016519
X+015975Y+017795
X+016669Y+018495
X+017019Y+017375
X+016390Y+015437
X+015769Y+014742
X+015419Y+012585
X+015769Y+012085
X+016040Y+011529
X+016040Y+009699
X+015790Y+007740
X+017490Y+007740
X+014294Y+008640
X+013244Y+007315
X+013594Y+006417
X+014294Y+006417
X+014294Y+005090
X+013244Y+005090
X+020797Y+009602
X+021297Y+009694
X+020947Y+010225
X+019470Y+011529
X+019120Y+012149
X+020220Y+012572
X+019620Y+013899
X+021323Y+015142
X+021673Y+015823
X+020973Y+017056
X+020205Y+017025
X+019705Y+016675
X+019120Y+017025
X+018806Y+019167
X+020973Y+018849
X+021873Y+017949
X+023727Y+018099
X+023727Y+018599
X+024186Y+020400
X+023727Y+021323
X+024227Y+021579
X+023027Y+021323
X+022327Y+021323
X+025258Y+020400
X+025608Y+021689
X+025608Y+018299
X+026519Y+016273
X+026031Y+014774
X+024245Y+014542
X+022977Y+013997
X+022527Y+012572
X+023827Y+011185
X+024327Y+011185
X+023512Y+010615
X+024882Y+009347
X+026714Y+007238
X+024882Y+005440
X+022052Y+007540
X+026364Y+012572
X+027595Y+013072
X+028142Y+014295
X+028142Y+015595
X+028492Y+016273
X+029132Y+018024
X+028507Y+019142
X+029290Y+021440
X+029735Y+022129
X+031041Y+020800
X+031741Y+020450
X+031741Y+018042
X+032071Y+017542
X+031041Y+017356
X+030691Y+016440
X+031671Y+015256
X+031871Y+014745
X+031684Y+013856
X+032644Y+012745
X+033439Y+013193
X+033439Y+012245
X+033821Y+011583
X+034376Y+013443
X+033640Y+014124
X+033990Y+015256
X+033640Y+015974
X+033640Y+017474
X+035766Y+015624
X+037166Y+015974
X+036666Y+014124
X+036846Y+011529
X+033089Y+009737
X+032071Y+007764
X+032440Y+006940
X+032071Y+006390
X+028857Y+010216
X+027395Y+011529
X+037166Y+004590
X+038440Y+019196
X+010655Y+020157
X+010305Y+021323
X+008018Y+020157
X+007318Y+019639
X+007668Y+017927
X+009038Y+017705
X+009503Y+017505
T02
X+032940Y+021440
X+033940Y+021440
X+039940Y+017940
X+040940Y+017940
X+040940Y+015440
X+039940Y+015440
X+037940Y+006940
X+037940Y+005940
X+035440Y+005940
X+035440Y+006940
X+033073Y+006940
X+033073Y+005940
X+030573Y+005940
X+030573Y+006940
X+023440Y+006940
X+023440Y+005940
X+020940Y+005940
X+020940Y+006940
X+018440Y+006940
X+018440Y+005940
X+015940Y+005940
X+015940Y+006940
X+011440Y+006940
X+011440Y+005940
X+008940Y+005940
X+008940Y+006940
X+006440Y+009440
X+005440Y+009440
X+005440Y+011940
X+006440Y+011940
X+006440Y+014440
X+005440Y+014440
X+005440Y+016940
X+006440Y+016940
T03
X+036440Y+021440
X+037440Y+021440
X+038440Y+021440
T04
X+005440Y+005440
X+005440Y+021440
X+041440Y+021440
X+041440Y+005440
T00
M30
