G04 DipTrace 2.2.0.9*
%INTopPaste.gbr*%
%MOIN*%
%ADD24C,0.04*%
%ADD32R,0.0707X0.0156*%
%ADD38R,0.0156X0.0707*%
%ADD40R,0.0333X0.0176*%
%ADD44R,0.0432X0.0511*%
%ADD46R,0.0511X0.0432*%
%FSLAX44Y44*%
%SFA1B1*%
%OFA0B0*%
G04*
G70*
G90*
G75*
G01*
%LNTopPaste*%
%LPD*%
D24*
X8188Y10173D3*
X33990Y15256D3*
X23727Y18599D3*
X9038Y17705D3*
X20973Y17056D3*
X34376Y13443D3*
X9438Y12249D3*
X38440Y19196D3*
X20220Y12572D3*
X31871Y14745D3*
X10640Y8155D3*
X30691Y16440D3*
X27395Y11529D3*
X20973Y18849D3*
X9473Y14218D3*
X12130Y19457D3*
X9503Y17505D3*
X31671Y15256D3*
X16669Y18495D3*
X22527Y12572D3*
X17019Y17375D3*
X23727Y18099D3*
X28507Y19142D3*
X27595Y13072D3*
X29290Y21440D3*
X12055Y17219D3*
X7535Y8094D3*
X5940Y9864D3*
X20205Y17025D3*
X8538Y11346D3*
X11355Y14285D3*
X19620Y13899D3*
X32071Y17542D3*
X11499Y12617D3*
X13725Y17149D3*
X26031Y14774D3*
X11685Y18995D3*
X28142Y14295D3*
X19705Y16675D3*
X28142Y15595D3*
X32440Y6940D3*
X32644Y12745D3*
X33439Y13193D3*
Y12245D3*
X33821Y11583D3*
X36846Y11529D3*
X15419Y12585D3*
X37166Y4590D3*
X33640Y15974D3*
X37166D3*
X32071Y7764D3*
X28857Y10216D3*
X25608Y18299D3*
Y21689D3*
X24227Y21579D3*
X22327Y21323D3*
X10305D3*
X7668Y17927D3*
X25258Y20400D3*
X8018Y20157D3*
X10655D3*
X23027Y21323D3*
X23727D3*
X29132Y18024D3*
X29735Y22129D3*
X24882Y9347D3*
Y5440D3*
X16040Y9699D3*
Y11529D3*
X23512Y10615D3*
X20947Y10225D3*
X21297Y9694D3*
X23827Y11185D3*
X19470Y11529D3*
X24327Y11185D3*
X19120Y12149D3*
X14294Y6417D3*
X13594D3*
X10945Y10548D3*
X10999Y12249D3*
X8538Y8688D3*
X6440Y10218D3*
X10499Y12449D3*
X26714Y7238D3*
X24245Y14542D3*
X26364Y12572D3*
X32071Y6390D3*
X7318Y19639D3*
X11853Y12249D3*
X10405Y14285D3*
X13189Y19167D3*
X18806D3*
X12207Y14285D3*
X12917Y9244D3*
X15769Y14742D3*
Y12085D3*
X14294Y8640D3*
X21873Y17949D3*
X22052Y7540D3*
X20797Y9602D3*
X15975Y17795D3*
X11355Y18417D3*
Y14785D3*
X11499Y10123D3*
X12040Y8290D3*
X14294Y5090D3*
X13244D3*
Y7315D3*
X16390Y15437D3*
X19120Y17025D3*
X22977Y13997D3*
X12207Y16519D3*
X13573D3*
X24186Y20400D3*
X21323Y15142D3*
X17490Y7740D3*
X15790D3*
X21673Y15823D3*
X26519Y16273D3*
X28492D3*
X31041Y17356D3*
Y20800D3*
X36666Y14124D3*
X33640D3*
X35766Y15624D3*
X33640Y17474D3*
X31741Y18042D3*
Y20450D3*
X31684Y13856D3*
X33089Y9737D3*
D46*
X9946Y16949D3*
Y16201D3*
X12949Y10548D3*
Y11296D3*
X9946Y10548D3*
Y11296D3*
D44*
X38440Y19940D3*
X37692D3*
X9651Y18838D3*
X10399D3*
D46*
X20710Y13985D3*
Y13237D3*
X23128Y12693D3*
Y13441D3*
X12130Y20025D3*
Y20773D3*
D44*
X11801Y13690D3*
X11053D3*
D46*
X29290Y19635D3*
Y20383D3*
D44*
X14019Y19852D3*
X14767D3*
D40*
X29940Y8940D3*
Y8192D3*
X30846Y8566D3*
X32440Y8940D3*
Y8192D3*
X33346Y8566D3*
X34940Y8940D3*
Y8192D3*
X35846Y8566D3*
X37440Y8940D3*
Y8192D3*
X38346Y8566D3*
X15440Y8940D3*
Y8192D3*
X16346Y8566D3*
X17940Y8940D3*
Y8192D3*
X18846Y8566D3*
X20440Y8940D3*
Y8192D3*
X21346Y8566D3*
X22940Y8940D3*
Y8192D3*
X23846Y8566D3*
D46*
X28237Y9696D3*
Y8948D3*
X30850Y10781D3*
Y11529D3*
X32644D3*
Y10781D3*
D44*
X32082Y13261D3*
X31334D3*
X35670Y10804D3*
X34922D3*
X35124Y12598D3*
X34376D3*
D46*
X37441Y11529D3*
Y10781D3*
X39235Y11366D3*
Y12114D3*
D44*
X7440Y16940D3*
X8188D3*
X7440Y9440D3*
X8188D3*
X7440Y11940D3*
X8188D3*
X7440Y14440D3*
X8188D3*
D46*
X15445Y11529D3*
Y10781D3*
X17239D3*
Y11529D3*
X17941Y13986D3*
Y13238D3*
X16147D3*
Y13986D3*
X20437Y11529D3*
Y10781D3*
D44*
X25608Y11935D3*
X24860D3*
X22208Y10804D3*
X22956D3*
X14415Y13261D3*
X13667D3*
D46*
X11440Y7940D3*
Y8688D3*
X12940Y7940D3*
Y8688D3*
X6940Y6940D3*
Y7688D3*
X9440Y7940D3*
Y8688D3*
D38*
X15557Y17951D3*
X15057D3*
X14557D3*
X14057D3*
X13557D3*
X13057D3*
X12557D3*
X12057D3*
Y15825D3*
X12557D3*
X13057D3*
X13557D3*
X14057D3*
X14557D3*
X15057D3*
X15557D3*
X17205Y15981D3*
X17705D3*
X18205D3*
X18705D3*
X19205D3*
X19705D3*
X20205D3*
X20705D3*
Y18107D3*
X20205D3*
X19705D3*
X19205D3*
X18705D3*
X18205D3*
X17705D3*
X17205D3*
X22408Y15279D3*
X22908D3*
X23408D3*
X23908D3*
X24408D3*
X24908D3*
X25408D3*
Y17405D3*
X24908D3*
X24408D3*
X23908D3*
X23408D3*
X22908D3*
X22408D3*
D32*
X27213Y17156D3*
Y16656D3*
Y16156D3*
Y15656D3*
Y15156D3*
Y14656D3*
Y14156D3*
Y13656D3*
X29339D3*
Y14156D3*
Y14656D3*
Y15156D3*
Y15656D3*
Y16156D3*
Y16656D3*
Y17156D3*
M02*
